<svg id="Capa_1" enable-background="new 0 0 512 512" height="512" viewBox="0 0 512 512" width="512" xmlns="http://www.w3.org/2000/svg"><g><path d="m406 106h-15c0-33.084-26.916-60-60-60-4.693 0-9.341.574-13.913 1.713-13.903-19.615-36.634-31.713-61.087-31.713s-47.185 12.099-61.087 31.713c-4.571-1.14-9.22-1.713-13.913-1.713-33.084 0-60 26.916-60 60h-15c-58.449 0-106 47.103-106 105 0 8.284 6.716 15 15 15h106v135c0 74.435 60.554 134.993 134.987 135 .004 0 .009.001.013.001s.009-.001.013-.001c74.433-.008 134.987-60.565 134.987-135v-135h106c8.284 0 15-6.716 15-15 0-57.897-47.551-105-106-105zm-225-30c4.562 0 9.149 1.175 13.635 3.492 3.646 1.883 7.904 2.191 11.784.85 3.879-1.34 7.039-4.211 8.744-7.944 7.326-16.036 23.355-26.398 40.837-26.398s33.512 10.362 40.838 26.399c1.705 3.733 4.866 6.604 8.745 7.944 3.877 1.34 8.137 1.033 11.784-.851 4.485-2.317 9.071-3.492 13.633-3.492 16.542 0 30 13.458 30 30 0 11.499-6.709 22.134-17.094 27.094-3.096 1.479-5.592 3.974-7.07 7.07-3.873 8.107-5.836 16.8-5.836 25.836 0 16.542-13.458 30-30 30s-30-13.458-30-30c0-8.284-6.716-15-15-15s-15 6.716-15 15c0 16.542-13.458 30-30 30s-30-13.458-30-30c0-9.036-1.963-17.729-5.836-25.836-1.479-3.096-3.974-5.592-7.07-7.07-10.385-4.961-17.094-15.595-17.094-27.094 0-16.542 13.458-30 30-30zm-60 120h-89.473c7.063-34.191 37.771-60 74.473-60h15c3.061 0 6.038.447 8.893 1.333 4.902 7.993 11.652 14.85 19.798 19.854.87 2.831 1.309 5.781 1.309 8.813 0 16.542-13.458 30-30 30zm240 165c0 52.805-39.184 96.623-90 103.924v-37.711l25.606-25.606c5.858-5.858 5.858-15.355 0-21.213-5.857-5.858-15.355-5.858-21.213 0l-19.393 19.393-19.394-19.394c-5.857-5.858-15.355-5.858-21.213 0s-5.858 15.355 0 21.213l25.607 25.607v37.711c-50.816-7.301-90-51.119-90-103.924v-143.072c5.646-3.274 10.709-7.438 15-12.305 11.003 12.481 27.092 20.377 45 20.377s33.997-7.896 45-20.377c11.003 12.481 27.092 20.377 45 20.377s33.997-7.896 45-20.377c4.291 4.867 9.354 9.031 15 12.305zm30-165c-16.542 0-30-13.458-30-30 0-3.032.439-5.982 1.309-8.813 8.146-5.003 14.896-11.86 19.798-19.854 2.855-.886 5.832-1.333 8.893-1.333h15c36.702 0 67.411 25.809 74.473 60z"/><circle cx="196" cy="271" r="15"/><circle cx="316" cy="271" r="15"/></g></svg>