<svg id="Capa_1" enable-background="new 0 0 512 512" height="512" viewBox="0 0 512 512" width="512" xmlns="http://www.w3.org/2000/svg"><g><path d="m239.896 69.819c0 9.85 3.836 19.111 10.801 26.076 2.929 2.93 7.678 2.929 10.607 0s2.929-7.678 0-10.606c-8.53-8.53-8.53-22.409 0-30.939 14.378-14.378 14.378-37.774 0-52.153-2.93-2.929-7.678-2.929-10.607 0s-2.929 7.678 0 10.606c8.53 8.53 8.53 22.41 0 30.94-6.966 6.965-10.801 16.226-10.801 26.076zm206.605 170.109c-8.624 0-17.007 1.645-24.921 4.89-9.75-22.785-26.419-43.393-48.229-59.617-3.322-2.472-8.021-1.782-10.494 1.541-2.473 3.324-1.782 8.022 1.541 10.494 19.813 14.738 34.876 33.368 43.559 53.874 3.103 7.329 11.633 10.785 19.024 7.707 6.186-2.581 12.753-3.889 19.521-3.889 27.845 0 50.498 22.462 50.498 50.072s-22.653 50.072-50.499 50.072c-13.415 0-26.049-5.17-35.575-14.557-5.605-5.521-14.724-5.521-20.329.001-9.523 9.387-22.157 14.556-35.574 14.556-14.824 0-28.845-6.428-38.467-17.636-2.778-3.235-6.803-5.091-11.043-5.091 0 0 0 0-.001 0-4.239 0-8.266 1.854-11.045 5.092-9.621 11.207-23.642 17.635-38.467 17.635s-28.846-6.428-38.468-17.637c-2.779-3.235-6.805-5.091-11.045-5.09-4.24 0-8.265 1.855-11.043 5.091-9.622 11.208-23.643 17.636-38.467 17.636-13.417 0-26.051-5.169-35.575-14.557-5.605-5.521-14.725-5.522-20.328.001-9.526 9.386-22.16 14.556-35.575 14.556-27.846 0-50.499-22.462-50.499-50.072s22.653-50.072 50.499-50.072c6.768 0 13.335 1.308 19.521 3.889 7.39 3.083 15.921-.379 19.023-7.707 22.315-52.701 83.382-88.11 151.957-88.11 27.933 0 55.443 5.923 79.557 17.129 3.759 1.747 8.217.116 9.963-3.641 1.745-3.756.115-8.216-3.641-9.962-26.081-12.12-55.777-18.526-85.879-18.526-74.328 0-140.796 38.889-165.58 96.817-7.914-3.245-16.297-4.89-24.921-4.89-36.116.001-65.499 29.192-65.499 65.073 0 30.205 20.824 55.665 48.957 62.966l35.715 99.36c9.602 26.721 35.128 44.674 63.518 44.674h44.567c4.143 0 7.5-3.357 7.5-7.5s-3.357-7.5-7.5-7.5h-44.567c-22.081 0-41.934-13.964-49.402-34.747l-33.136-92.185c17.153-.039 33.316-6.603 45.586-18.512 12.305 11.943 28.528 18.516 45.739 18.516 19.031 0 37.048-8.187 49.512-22.476 12.463 14.29 30.478 22.476 49.511 22.476 19.034 0 37.05-8.186 49.512-22.476 12.464 14.29 30.479 22.476 49.511 22.476 17.212 0 33.435-6.571 45.739-18.516 12.271 11.909 28.433 18.473 45.586 18.512l-33.137 92.186c-7.468 20.782-27.32 34.746-49.401 34.746h-136.052c-4.143 0-7.5 3.357-7.5 7.5s3.357 7.5 7.5 7.5h136.052c28.391 0 53.916-17.953 63.518-44.673l35.716-99.361c28.132-7.301 48.956-32.761 48.956-62.966 0-35.881-29.383-65.072-65.499-65.072zm-150.805-136.224c2.929 2.929 7.677 2.928 10.606 0 2.93-2.929 2.93-7.677.001-10.606-5.471-5.471-5.471-14.373 0-19.844 11.318-11.319 11.318-29.737 0-41.057-2.929-2.929-7.678-2.93-10.606 0-2.93 2.929-2.93 7.677-.001 10.606 5.471 5.471 5.471 14.373 0 19.844-11.318 11.319-11.318 29.738 0 41.057zm-90 0c2.929 2.929 7.677 2.928 10.606 0 2.93-2.929 2.93-7.677.001-10.606-5.471-5.471-5.471-14.373 0-19.844 11.318-11.319 11.318-29.737 0-41.057-2.929-2.929-7.678-2.93-10.606 0-2.93 2.929-2.93 7.677-.001 10.606 5.471 5.471 5.471 14.373 0 19.844-11.318 11.319-11.318 29.738 0 41.057zm-71.041 158.141c3.252 3.252 7.66 4.81 12.716 4.81 9.984 0 22.493-6.077 33.599-17.184 7.208-7.208 12.666-15.47 15.367-23.265 3.329-9.606 2.267-17.793-2.992-23.051-9.674-9.673-29.585-4.356-46.315 12.375h.001c-7.208 7.208-12.666 15.47-15.367 23.265-3.33 9.605-2.268 17.792 2.991 23.05zm11.181-18.14c1.945-5.612 6.246-12.016 11.8-17.57h.001c9.828-9.829 18.938-12.896 23.033-12.896 1.028 0 1.74.193 2.068.521.493.493 1.002 2.983-.574 7.533-1.945 5.612-6.246 12.016-11.801 17.57-12.296 12.296-23.465 14.009-25.102 12.374-.492-.492-1.001-2.982.575-7.532zm86.164-11.205c0 23.659 10.317 41.5 24 41.5s24-17.841 24-41.5-10.317-41.5-24-41.5-24 17.841-24 41.5zm33 0c0 17.388-6.688 26.5-9 26.5s-9-9.112-9-26.5 6.688-26.5 9-26.5 9 9.112 9 26.5zm49.654-29.345c-5.258 5.258-6.32 13.444-2.991 23.051 2.701 7.795 8.159 16.057 15.366 23.265 11.107 11.107 23.614 17.185 33.6 17.184 5.055 0 9.465-1.559 12.717-4.81 5.258-5.258 6.32-13.444 2.991-23.051-2.701-7.795-8.159-16.057-15.366-23.265-16.73-16.73-36.639-22.048-46.317-12.374zm35.71 22.981c5.554 5.554 9.854 11.958 11.8 17.57 1.576 4.549 1.067 7.04.575 7.532-1.639 1.638-12.808-.079-25.104-12.374-5.554-5.554-9.854-11.958-11.8-17.57-1.576-4.549-1.067-7.04-.575-7.532.329-.329 1.041-.522 2.069-.522 4.097 0 13.207 3.067 23.035 12.896-.001 0-.001 0 0 0z"/></g></svg>