<svg id="Layer_3" enable-background="new 0 0 64 64" height="512" viewBox="0 0 64 64" width="512" xmlns="http://www.w3.org/2000/svg"><g><path d="m62.515 48.143c-3.446-2.067-7.502-2.728-11.423-1.854l-2.254.501-.914-6.399 1.512-3.023c2.331-4.662 2.49-10.083.437-14.873l-1.619-3.778c-2.716-6.339-8.839-10.482-15.698-10.696-3.669-2.391-7.796-3.995-12.211-4.674l-16.368-2.518c-.317-.049-.634.056-.859.281l-2.008 2.008c-.225.225-.33.544-.281.859l2.518 16.369c.677 4.402 2.273 8.518 4.653 12.177v3.185c0 3.002 1.614 5.802 4.213 7.307l9.745 5.642c1.34.776 2.803 1.15 4.248 1.15 2.404 0 4.752-1.045 6.407-2.996l14.177 2.025-.501 2.254c-.872 3.921-.214 7.979 1.854 11.424.181.303.507.486.857.486.02 0 .041 0 .061-.002.373-.022.701-.251.853-.592l3.844-8.648 8.648-3.844c.341-.151.569-.48.592-.853s-.164-.727-.483-.918zm-26.329-34.639c4.421 4.421 7.343 10.265 8.227 16.454l2.409 16.863-16.863-2.409c-6.189-.884-12.032-3.806-16.454-8.227-3.58-3.581-6.098-7.948-7.432-12.761 1.268.372 2.58.576 3.927.576 7.72 0 14-6.28 14-14 0-1.347-.204-2.659-.576-3.928 4.813 1.334 9.18 3.852 12.762 7.432m-14.577 32.641-4.758-2.755-.824-2.473c1.609 1.144 3.331 2.116 5.125 2.938zm24.805-26.641 1.171 2.733-3.988-1.657c-.505-1.046-1.068-2.061-1.686-3.046l4.341 1.628c.053.116.112.226.162.342zm-1.7 3.706 3.883 1.613c.288.928.471 1.876.582 2.83l-3.518-1.462c-.267-1.009-.581-2.004-.947-2.981zm2.932 13.263-.22.439-1.034-7.237c-.053-.369-.137-.732-.203-1.098l3.107 1.291c-.059 2.267-.609 4.522-1.65 6.605zm-2.984-20.043-4.829-1.811c-.703-.878-1.436-1.732-2.233-2.529-.557-.557-1.135-1.087-1.726-1.596 3.526.897 6.638 2.99 8.788 5.936zm-40.489-13.548 15.868 2.441c.365.056.721.141 1.082.21.572 1.419.877 2.917.877 4.467 0 6.617-5.383 12-12 12-1.55 0-3.048-.305-4.467-.876-.069-.361-.154-.717-.21-1.082l-1.026-6.668c2.438 1.7 5.325 2.626 8.36 2.626h2.343v-2h-2.343c-3.319 0-6.439-1.275-8.814-3.584l-.96-6.243zm5.827 32.826v-.445c.659.805 1.346 1.592 2.09 2.336.334.334.693.642 1.042.96l1.106 3.318-1.023-.593c-1.983-1.148-3.215-3.284-3.215-5.576zm13.892 11.652-.518-2.588c2.037.75 4.145 1.312 6.301 1.62l.419.06c-1.765 1.361-4.097 1.721-6.202.908zm28.702 4.726c-.226.1-.407.281-.507.507l-3.144 7.074c-1.061-2.565-1.312-5.392-.701-8.143l.597-2.687 2.687-.597c2.752-.612 5.579-.359 8.143.701z"/><circle cx="12" cy="8" r="2"/><path d="m28.707 18.707 2-2c.188-.187.293-.442.293-.707v-4h-2v3.586l-1.414 1.414h-3.586v2h4c.265 0 .52-.105.707-.293z"/><path d="m19 28v-4h-2v3.586l-1.414 1.414h-3.586v2h4c.265 0 .52-.105.707-.293l2-2c.188-.187.293-.442.293-.707z"/><path d="m25.707 27.707 2-2c.188-.187.293-.442.293-.707v-4h-2v3.586l-1.414 1.414h-3.586v2h4c.265 0 .52-.105.707-.293z"/><path d="m30 25h4c.265 0 .52-.105.707-.293l2-2c.188-.187.293-.442.293-.707v-4h-2v3.586l-1.414 1.414h-3.586z"/><path d="m25 30h-2v3.586l-1.414 1.414h-3.586v2h4c.265 0 .52-.105.707-.293l2-2c.188-.187.293-.442.293-.707z"/><path d="m34 31v-4h-2v3.586l-1.414 1.414h-3.586v2h4c.265 0 .52-.105.707-.293l2-2c.188-.187.293-.442.293-.707z"/><path d="m41 27.586-1.414 1.414h-2.586v2h3c.265 0 .52-.105.707-.293l2-2c.188-.187.293-.442.293-.707v-3h-2z"/><path d="m29 39.586-1.414 1.414h-2.586v2h3c.265 0 .52-.105.707-.293l2-2c.188-.187.293-.442.293-.707v-3h-2z"/><path d="m38 36.586-1.414 1.414h-3.586v2h4c.265 0 .52-.105.707-.293l2-2c.188-.187.293-.442.293-.707v-4h-2z"/></g></svg>