<?xml version="1.0" encoding="iso-8859-1"?>
<!-- Generator: Adobe Illustrator 19.0.0, SVG Export Plug-In . SVG Version: 6.00 Build 0)  -->
<svg version="1.1" id="Layer_1" xmlns="http://www.w3.org/2000/svg" xmlns:xlink="http://www.w3.org/1999/xlink" x="0px" y="0px"
	 viewBox="0 0 512 512" style="enable-background:new 0 0 512 512;" xml:space="preserve">
<polygon style="fill:#2488FF;" points="478.609,166.957 478.609,100.174 445.217,100.174 445.217,66.783 378.435,66.783 
	378.435,166.957 411.826,166.957 411.826,345.043 378.435,345.043 378.435,378.435 345.043,378.435 345.043,411.826 
	166.957,411.826 166.957,378.435 166.957,378.435 166.957,378.435 133.565,378.435 133.565,345.043 100.175,345.043 
	100.175,233.739 133.565,233.739 133.565,200.348 166.957,200.348 166.957,233.739 200.348,233.739 200.348,267.13 267.13,267.13 
	267.13,0 0,0 0,66.784 33.391,66.784 33.391,100.175 66.783,100.175 66.783,133.565 33.391,133.565 33.391,200.348 0.001,200.348 
	0.001,345.045 33.391,345.045 33.391,411.826 33.391,411.826 33.391,411.827 66.783,411.827 66.783,445.217 100.174,445.217 
	100.174,478.609 166.957,478.609 166.957,512 345.043,512 345.043,478.609 411.826,478.609 411.826,445.217 445.217,445.217 
	445.217,411.826 478.609,411.826 478.609,345.043 512,345.043 512,166.957 "/>
<polygon style="fill:#005ECE;" points="133.565,133.565 166.957,133.565 166.957,100.174 200.348,100.174 200.348,66.783 
	267.13,66.783 267.13,267.13 200.348,267.13 200.348,233.739 166.957,233.739 166.957,200.348 133.565,200.348 "/>
<polygon points="445.217,100.174 445.217,66.783 378.435,66.783 378.435,166.957 411.826,166.957 411.826,100.174 "/>
<rect x="411.826" y="411.826" width="33.391" height="33.391"/>
<rect x="33.391" y="345.043" width="33.391" height="66.783"/>
<rect x="445.217" y="100.174" width="33.391" height="66.783"/>
<rect x="478.609" y="166.957" width="33.391" height="178.087"/>
<rect x="445.217" y="345.043" width="33.391" height="66.783"/>
<polygon points="345.043,478.609 166.957,478.609 166.957,512 345.043,512 345.043,478.609 411.826,478.609 411.826,445.217 
	345.043,445.217 "/>
<rect x="100.174" y="445.217" width="66.783" height="33.391"/>
<rect x="66.783" y="411.826" width="33.391" height="33.391"/>
<polygon points="233.739,33.391 233.739,233.739 200.348,233.739 200.348,267.13 267.13,267.13 267.13,0 0,0 0,66.783 
	33.391,66.783 33.391,33.391 "/>
<rect x="33.391" y="66.783" width="33.391" height="33.391"/>
<rect x="66.783" y="233.739" width="33.391" height="111.304"/>
<rect x="411.826" y="166.957" width="33.391" height="178.087"/>
<polygon points="411.826,345.043 378.435,345.043 378.435,378.435 345.043,378.435 345.043,411.826 411.826,411.826 "/>
<polygon points="100.174,411.826 166.957,411.826 166.957,378.435 133.565,378.435 133.565,345.043 100.174,345.043 "/>
<rect x="166.957" y="411.826" width="178.087" height="33.391"/>
<rect x="166.957" y="200.348" width="33.391" height="33.391"/>
<rect x="66.783" y="100.174" width="33.391" height="33.391"/>
<polygon points="66.783,200.348 66.783,133.565 33.391,133.565 33.391,200.348 0,200.348 0,345.043 33.391,345.043 33.391,200.348 
	"/>
<polygon points="133.565,200.348 166.957,200.348 166.957,166.957 100.174,166.957 100.174,233.739 133.565,233.739 "/>
<g>
</g>
<g>
</g>
<g>
</g>
<g>
</g>
<g>
</g>
<g>
</g>
<g>
</g>
<g>
</g>
<g>
</g>
<g>
</g>
<g>
</g>
<g>
</g>
<g>
</g>
<g>
</g>
<g>
</g>
</svg>
