<?xml version="1.0" encoding="iso-8859-1"?>
<!-- Generator: Adobe Illustrator 19.0.0, SVG Export Plug-In . SVG Version: 6.00 Build 0)  -->
<svg xmlns="http://www.w3.org/2000/svg" xmlns:xlink="http://www.w3.org/1999/xlink" version="1.1" id="Layer_1" x="0px" y="0px" viewBox="0 0 512 512" style="enable-background:new 0 0 512 512;" xml:space="preserve">
<polygon style="fill:#57A4FF;" points="478.609,233.739 512,233.739 512,166.957 478.609,166.957 478.609,133.565 411.826,133.565   411.826,166.957 378.435,166.957 378.435,233.739 345.043,233.739 345.043,166.957 311.652,166.957 311.652,233.739   278.261,233.739 278.261,166.957 244.87,166.957 244.87,233.739 211.478,233.739 211.478,66.783 111.304,66.783 111.304,100.174   66.783,100.174 66.783,133.565 33.391,133.565 33.391,166.957 0,166.957 0,345.043 33.391,345.043 33.391,378.435 66.783,378.435   66.783,411.826 111.304,411.826 111.304,445.217 211.478,445.217 211.478,267.13 244.87,267.13 244.87,345.043 278.261,345.043   278.261,267.13 311.652,267.13 311.652,345.043 345.043,345.043 345.043,267.13 378.435,267.13 378.435,345.043 411.826,345.043   411.826,378.435 478.609,378.435 478.609,345.043 512,345.043 512,278.261 478.609,278.261 478.609,267.13 "/>
<rect x="66.783" y="100.174" width="44.522" height="33.391"/>
<rect y="166.957" width="33.391" height="178.087"/>
<rect x="33.391" y="345.043" width="33.391" height="33.391"/>
<rect x="66.783" y="378.435" width="44.522" height="33.391"/>
<rect x="89.043" y="233.739" width="44.522" height="44.522"/>
<polygon points="411.826,166.957 378.435,166.957 378.435,233.739 345.043,233.739 345.043,166.957 311.652,166.957   311.652,233.739 278.261,233.739 278.261,166.957 244.87,166.957 244.87,233.739 211.478,233.739 211.478,66.783 111.304,66.783   111.304,100.174 178.087,100.174 178.087,411.826 111.304,411.826 111.304,445.217 211.478,445.217 211.478,267.13 244.87,267.13   244.87,345.043 278.261,345.043 278.261,267.13 311.652,267.13 311.652,345.043 345.043,345.043 345.043,267.13 378.435,267.13   378.435,345.043 411.826,345.043 "/>
<rect x="411.826" y="133.565" width="66.783" height="33.391"/>
<rect x="478.609" y="166.957" width="33.391" height="66.783"/>
<rect x="445.217" y="233.739" width="33.391" height="44.522"/>
<rect x="478.609" y="278.261" width="33.391" height="66.783"/>
<rect x="411.826" y="345.043" width="66.783" height="33.391"/>
<rect x="33.391" y="133.565" width="33.391" height="33.391"/>
<g>
</g>
<g>
</g>
<g>
</g>
<g>
</g>
<g>
</g>
<g>
</g>
<g>
</g>
<g>
</g>
<g>
</g>
<g>
</g>
<g>
</g>
<g>
</g>
<g>
</g>
<g>
</g>
<g>
</g>
</svg>
