<?xml version="1.0" encoding="iso-8859-1"?>
<!-- Generator: Adobe Illustrator 19.0.0, SVG Export Plug-In . SVG Version: 6.00 Build 0)  -->
<svg xmlns="http://www.w3.org/2000/svg" xmlns:xlink="http://www.w3.org/1999/xlink" version="1.1" id="Layer_1" x="0px" y="0px" viewBox="0 0 512 512" style="enable-background:new 0 0 512 512;" xml:space="preserve">
<polygon style="fill:#57A4FF;" points="512,233.739 512,166.957 478.609,166.957 478.609,133.565 400.696,133.565 400.696,166.957   367.304,166.957 367.304,122.435 333.913,122.435 333.913,89.043 289.391,89.043 289.391,55.652 111.304,55.652 111.304,89.043   66.783,89.043 66.783,122.435 33.391,122.435 33.391,166.957 0,166.957 0,345.043 33.391,345.043 33.391,389.565 66.783,389.565   66.783,422.957 111.304,422.957 111.304,456.348 289.391,456.348 289.391,422.957 333.913,422.957 333.913,389.565 367.304,389.565   367.304,345.043 400.696,345.043 400.696,378.435 478.609,378.435 478.609,345.043 512,345.043 512,278.261 478.609,278.261   478.609,233.739 "/>
<rect x="111.304" y="55.652" width="178.087" height="33.391"/>
<rect x="66.783" y="89.043" width="44.522" height="33.391"/>
<rect x="33.391" y="122.435" width="33.391" height="44.522"/>
<rect x="100.174" y="233.739" width="44.522" height="44.522"/>
<rect x="33.391" y="345.043" width="33.391" height="44.522"/>
<rect x="66.783" y="389.565" width="44.522" height="33.391"/>
<rect x="111.304" y="422.957" width="178.087" height="33.391"/>
<rect x="289.391" y="389.565" width="44.522" height="33.391"/>
<rect x="333.913" y="345.043" width="33.391" height="44.522"/>
<rect x="367.304" y="278.261" width="33.391" height="66.783"/>
<rect x="367.304" y="166.957" width="33.391" height="66.783"/>
<rect x="333.913" y="122.435" width="33.391" height="44.522"/>
<rect x="289.391" y="89.043" width="44.522" height="33.391"/>
<rect x="400.696" y="133.565" width="77.913" height="33.391"/>
<rect x="478.609" y="166.957" width="33.391" height="66.783"/>
<rect x="445.217" y="233.739" width="33.391" height="44.522"/>
<rect x="478.609" y="278.261" width="33.391" height="66.783"/>
<rect x="400.696" y="345.043" width="77.913" height="33.391"/>
<rect y="166.957" width="33.391" height="178.087"/>
<g>
</g>
<g>
</g>
<g>
</g>
<g>
</g>
<g>
</g>
<g>
</g>
<g>
</g>
<g>
</g>
<g>
</g>
<g>
</g>
<g>
</g>
<g>
</g>
<g>
</g>
<g>
</g>
<g>
</g>
</svg>
