<?xml version="1.0" encoding="iso-8859-1"?>
<!-- Generator: Adobe Illustrator 19.0.0, SVG Export Plug-In . SVG Version: 6.00 Build 0)  -->
<svg xmlns="http://www.w3.org/2000/svg" xmlns:xlink="http://www.w3.org/1999/xlink" version="1.1" id="Layer_1" x="0px" y="0px" viewBox="0 0 512 512" style="enable-background:new 0 0 512 512;" xml:space="preserve">
<polygon style="fill:#ACABB1;" points="439.652,66.783 406.261,66.783 406.261,33.391 372.87,33.391 372.87,0 139.13,0   139.13,33.391 105.739,33.391 105.739,66.783 72.348,66.783 72.348,478.609 105.739,478.609 105.739,512 139.13,512 372.87,512   406.261,512 406.261,478.609 439.652,478.609 "/>
<polygon style="fill:#E1E3FA;" points="439.652,144.696 72.348,144.696 72.348,478.609 105.739,478.609 105.739,512 406.261,512   406.261,478.609 439.652,478.609 "/>
<rect x="139.13" width="233.739" height="33.391"/>
<rect x="372.87" y="33.391" width="33.391" height="33.391"/>
<rect x="172.522" y="66.783" width="33.391" height="33.391"/>
<rect x="239.304" y="66.783" width="33.391" height="33.391"/>
<rect x="306.087" y="66.783" width="33.391" height="33.391"/>
<polygon points="406.261,66.783 406.261,144.696 105.739,144.696 105.739,66.783 72.348,66.783 72.348,478.609 105.739,478.609   105.739,178.087 406.261,178.087 406.261,478.609 439.652,478.609 439.652,66.783 "/>
<rect x="105.739" y="478.609" width="300.522" height="33.391"/>
<rect x="105.739" y="33.391" width="33.391" height="33.391"/>
<g>
	<rect x="139.13" y="278.261" style="fill:#FFFFFF;" width="33.391" height="33.391"/>
	<rect x="139.13" y="345.043" style="fill:#FFFFFF;" width="33.391" height="100.174"/>
</g>
<g>
</g>
<g>
</g>
<g>
</g>
<g>
</g>
<g>
</g>
<g>
</g>
<g>
</g>
<g>
</g>
<g>
</g>
<g>
</g>
<g>
</g>
<g>
</g>
<g>
</g>
<g>
</g>
<g>
</g>
</svg>
