<?xml version="1.0" encoding="iso-8859-1"?>
<!-- Generator: Adobe Illustrator 19.0.0, SVG Export Plug-In . SVG Version: 6.00 Build 0)  -->
<svg xmlns="http://www.w3.org/2000/svg" xmlns:xlink="http://www.w3.org/1999/xlink" version="1.1" id="Layer_1" x="0px" y="0px" viewBox="0 0 512 512" style="enable-background:new 0 0 512 512;" xml:space="preserve">
<polygon style="fill:#FFEB00;" points="478.609,166.957 478.609,100.174 445.217,100.174 445.217,66.783 411.826,66.783   411.826,33.391 378.435,33.391 378.435,0 267.13,0 267.13,33.391 211.478,33.391 211.478,66.783 166.957,66.783 166.957,100.174   122.435,100.174 122.435,133.565 77.913,133.565 77.913,166.957 33.391,166.957 33.391,200.348 0,200.348 0,512 512,512   512,222.609 512,200.348 512,166.957 "/>
<g>
	<polygon style="fill:#FF7300;" points="333.913,178.087 333.913,133.565 300.522,133.565 300.522,100.174 256,100.174 256,133.565    222.609,133.565 222.609,178.087 256,178.087 256,211.478 300.522,211.478 300.522,178.087  "/>
	<polygon style="fill:#FF7300;" points="445.217,345.043 411.826,345.043 411.826,311.652 345.043,311.652 345.043,345.043    311.652,345.043 311.652,411.826 345.043,411.826 345.043,445.217 411.826,445.217 411.826,411.826 445.217,411.826  "/>
	<polygon style="fill:#FF7300;" points="155.826,300.522 111.304,300.522 111.304,333.913 77.913,333.913 77.913,378.435    111.304,378.435 111.304,411.826 155.826,411.826 155.826,378.435 189.217,378.435 189.217,333.913 155.826,333.913  "/>
</g>
<rect x="267.13" width="111.304" height="33.391"/>
<rect x="411.826" y="66.783" width="33.391" height="33.391"/>
<rect x="445.217" y="100.174" width="33.391" height="66.783"/>
<polygon points="478.609,166.957 478.609,233.739 378.435,233.739 378.435,267.13 478.609,267.13 478.609,478.609 33.391,478.609   33.391,267.13 244.87,267.13 244.87,233.739 33.391,233.739 33.391,200.348 0,200.348 0,512 512,512 512,166.957 "/>
<rect x="311.652" y="233.739" width="33.391" height="33.391"/>
<rect x="33.391" y="166.957" width="44.522" height="33.391"/>
<rect x="77.913" y="133.565" width="44.522" height="33.391"/>
<rect x="122.435" y="100.174" width="44.522" height="33.391"/>
<rect x="166.957" y="66.783" width="44.522" height="33.391"/>
<rect x="211.478" y="33.391" width="55.652" height="33.391"/>
<rect x="256" y="100.174" width="44.522" height="33.391"/>
<rect x="222.609" y="133.565" width="33.391" height="44.522"/>
<rect x="256" y="178.087" width="44.522" height="33.391"/>
<rect x="300.522" y="133.565" width="33.391" height="44.522"/>
<rect x="111.304" y="300.522" width="44.522" height="33.391"/>
<rect x="155.826" y="333.913" width="33.391" height="44.522"/>
<rect x="111.304" y="378.435" width="44.522" height="33.391"/>
<rect x="77.913" y="333.913" width="33.391" height="44.522"/>
<rect x="311.652" y="345.043" width="33.391" height="66.783"/>
<rect x="345.043" y="311.652" width="66.783" height="33.391"/>
<rect x="411.826" y="345.043" width="33.391" height="66.783"/>
<rect x="345.043" y="411.826" width="66.783" height="33.391"/>
<rect x="378.435" y="33.391" width="33.391" height="33.391"/>
<g>
</g>
<g>
</g>
<g>
</g>
<g>
</g>
<g>
</g>
<g>
</g>
<g>
</g>
<g>
</g>
<g>
</g>
<g>
</g>
<g>
</g>
<g>
</g>
<g>
</g>
<g>
</g>
<g>
</g>
</svg>
