<?xml version="1.0" encoding="iso-8859-1"?>
<!-- Generator: Adobe Illustrator 19.0.0, SVG Export Plug-In . SVG Version: 6.00 Build 0)  -->
<svg xmlns="http://www.w3.org/2000/svg" xmlns:xlink="http://www.w3.org/1999/xlink" version="1.1" id="Layer_1" x="0px" y="0px" viewBox="0 0 512 512" style="enable-background:new 0 0 512 512;" xml:space="preserve">
<polygon style="fill:#D1E7F8;" points="372.87,0 139.13,0 139.13,267.13 172.522,267.13 172.522,300.522 205.913,300.522   205.913,333.913 239.304,333.913 239.304,478.609 172.522,478.609 172.522,512 239.304,512 272.696,512 339.478,512   339.478,478.609 272.696,478.609 272.696,333.913 306.087,333.913 306.087,300.522 339.478,300.522 339.478,267.13 372.87,267.13   "/>
<polygon style="fill:#FFEB99;" points="372.87,77.913 139.13,77.913 139.13,267.13 172.522,267.13 172.522,300.522 205.913,300.522   205.913,333.913 306.087,333.913 306.087,300.522 339.478,300.522 339.478,267.13 372.87,267.13 "/>
<g>
	<rect x="172.522" y="111.304" style="fill:#FFFFFF;" width="33.391" height="33.391"/>
	<rect x="172.522" y="178.087" style="fill:#FFFFFF;" width="33.391" height="122.435"/>
</g>
<polygon points="339.478,0 172.522,0 139.13,0 139.13,33.391 139.13,267.13 172.522,267.13 172.522,33.391 339.478,33.391   339.478,267.13 372.87,267.13 372.87,33.391 372.87,0 "/>
<rect x="172.522" y="267.13" width="33.391" height="33.391"/>
<rect x="306.087" y="267.13" width="33.391" height="33.391"/>
<polygon points="239.304,300.522 205.913,300.522 205.913,333.913 239.304,333.913 239.304,478.609 172.522,478.609 172.522,512   239.304,512 272.696,512 339.478,512 339.478,478.609 272.696,478.609 272.696,333.913 306.087,333.913 306.087,300.522   272.696,300.522 "/>
<g>
</g>
<g>
</g>
<g>
</g>
<g>
</g>
<g>
</g>
<g>
</g>
<g>
</g>
<g>
</g>
<g>
</g>
<g>
</g>
<g>
</g>
<g>
</g>
<g>
</g>
<g>
</g>
<g>
</g>
</svg>
