<?xml version="1.0" encoding="iso-8859-1"?>
<!-- Generator: Adobe Illustrator 19.0.0, SVG Export Plug-In . SVG Version: 6.00 Build 0)  -->
<svg xmlns="http://www.w3.org/2000/svg" xmlns:xlink="http://www.w3.org/1999/xlink" version="1.1" id="Layer_1" x="0px" y="0px" viewBox="0 0 512 512" style="enable-background:new 0 0 512 512;" xml:space="preserve">
<polygon style="fill:#D1E7F8;" points="473.043,0 38.957,0 38.957,66.783 72.348,66.783 72.348,100.174 105.739,100.174   105.739,133.565 139.13,133.565 139.13,166.957 172.522,166.957 172.522,200.348 205.913,200.348 205.913,233.739 239.304,233.739   239.304,478.609 172.522,478.609 172.522,512 239.304,512 272.696,512 339.478,512 339.478,478.609 272.696,478.609   272.696,233.739 306.087,233.739 306.087,200.348 339.478,200.348 339.478,166.957 372.87,166.957 372.87,133.565 406.261,133.565   406.261,100.174 439.652,100.174 439.652,66.783 473.043,66.783 "/>
<polygon style="fill:#9CDD05;" points="439.652,66.783 406.261,66.783 105.739,66.783 72.348,66.783 72.348,100.174   105.739,100.174 105.739,133.565 139.13,133.565 139.13,166.957 172.522,166.957 172.522,200.348 205.913,200.348 205.913,233.739   306.087,233.739 306.087,200.348 339.478,200.348 339.478,166.957 372.87,166.957 372.87,133.565 406.261,133.565 406.261,100.174   439.652,100.174 "/>
<rect x="72.348" y="66.783" width="33.391" height="33.391"/>
<rect x="105.739" y="100.174" width="33.391" height="33.391"/>
<rect x="139.13" y="133.565" width="33.391" height="33.391"/>
<rect x="172.522" y="166.957" width="33.391" height="33.391"/>
<polygon points="205.913,233.739 239.304,233.739 239.304,478.609 172.522,478.609 172.522,512 239.304,512 272.696,512   339.478,512 339.478,478.609 272.696,478.609 272.696,233.739 306.087,233.739 306.087,200.348 205.913,200.348 "/>
<rect x="306.087" y="166.957" width="33.391" height="33.391"/>
<rect x="339.478" y="133.565" width="33.391" height="33.391"/>
<rect x="372.87" y="100.174" width="33.391" height="33.391"/>
<rect x="406.261" y="66.783" width="33.391" height="33.391"/>
<polygon points="439.652,0 72.348,0 38.957,0 38.957,33.391 38.957,66.783 72.348,66.783 72.348,33.391 439.652,33.391   439.652,66.783 473.043,66.783 473.043,33.391 473.043,0 "/>
<g>
	<rect x="205.913" y="166.957" style="fill:#FFFFFF;" width="33.391" height="33.391"/>
	<rect x="172.522" y="133.565" style="fill:#FFFFFF;" width="33.391" height="33.391"/>
	<rect x="139.13" y="100.174" style="fill:#FFFFFF;" width="33.391" height="33.391"/>
</g>
<g>
</g>
<g>
</g>
<g>
</g>
<g>
</g>
<g>
</g>
<g>
</g>
<g>
</g>
<g>
</g>
<g>
</g>
<g>
</g>
<g>
</g>
<g>
</g>
<g>
</g>
<g>
</g>
<g>
</g>
</svg>
