<?xml version="1.0" encoding="iso-8859-1"?>
<!-- Generator: Adobe Illustrator 19.0.0, SVG Export Plug-In . SVG Version: 6.00 Build 0)  -->
<svg xmlns="http://www.w3.org/2000/svg" xmlns:xlink="http://www.w3.org/1999/xlink" version="1.1" id="Layer_1" x="0px" y="0px" viewBox="0 0 512 512" style="enable-background:new 0 0 512 512;" xml:space="preserve">
<polygon style="fill:#FFA733;" points="478.609,200.348 478.609,133.567 478.609,133.567 478.609,133.565 445.217,133.565   445.217,100.174 411.826,100.174 411.826,66.783 345.045,66.783 345.045,33.391 311.653,33.391 311.653,0 200.348,0 200.348,0   200.348,0 200.348,33.391 166.958,33.391 166.958,66.783 100.174,66.783 100.174,100.174 66.783,100.174 66.783,133.565   33.392,133.565 33.392,200.348 0,200.348 0,311.652 33.392,311.652 33.392,345.043 55.653,345.043 55.653,400.696 89.045,400.696   89.045,400.696 89.045,400.696 89.045,400.696 89.045,400.696 89.045,478.609 122.436,478.609 122.436,478.609 122.436,478.609   122.436,478.609 122.436,478.609 122.436,512 389.565,512 389.565,512 389.565,512 389.565,478.609 422.957,478.609   422.957,478.609 422.957,478.609 422.957,400.696 456.348,400.696 456.348,400.696 456.348,400.696 456.348,345.043   478.609,345.043 478.609,311.652 478.609,311.652 478.609,311.652 512,311.652 512,200.348 "/>
<polygon style="fill:#FFF5CC;" points="478.609,311.652 33.392,311.652 33.392,345.043 55.653,345.043 55.653,400.696   89.045,400.696 89.045,478.609 122.436,478.609 122.436,512 389.565,512 389.565,478.609 422.957,478.609 422.957,400.696   456.348,400.696 456.348,345.043 478.609,345.043 "/>
<polygon style="fill:#966EC5;" points="311.653,33.391 311.653,0 200.348,0 200.348,33.391 166.958,33.391 166.958,144.696   200.348,144.696 200.348,178.087 311.653,178.087 311.653,144.696 345.045,144.696 345.045,33.391 "/>
<polygon points="389.565,512 389.565,478.609 422.957,478.609 422.957,400.696 389.565,400.696 389.565,478.609 122.436,478.609   122.436,512 "/>
<rect x="89.043" y="400.696" width="33.391" height="77.913"/>
<polygon points="345.045,144.696 345.045,100.174 411.826,100.174 411.826,133.565 445.217,133.565 445.217,100.174   411.826,100.174 411.826,66.783 345.045,66.783 345.045,33.391 311.653,33.391 311.653,144.696 "/>
<polygon points="166.958,144.696 200.348,144.696 200.348,33.391 166.958,33.391 166.958,66.783 100.174,66.783 100.174,100.174   166.958,100.174 "/>
<rect x="200.348" y="144.696" width="111.304" height="33.391"/>
<rect x="200.348" width="111.304" height="33.391"/>
<rect x="66.783" y="100.174" width="33.391" height="33.391"/>
<polygon points="478.609,200.348 478.609,133.565 445.217,133.565 445.217,200.348 478.609,200.348 478.609,311.652 512,311.652   512,200.348 "/>
<polygon points="33.392,200.348 66.783,200.348 66.783,133.565 33.392,133.565 33.392,200.348 0,200.348 0,311.652 33.392,311.652   33.392,345.043 55.653,345.043 55.653,400.696 89.045,400.696 89.045,345.043 422.957,345.043 422.957,400.696 456.348,400.696   456.348,345.043 478.609,345.043 478.609,311.652 33.392,311.652 "/>
<rect x="178.087" y="367.304" width="33.391" height="77.913"/>
<rect x="300.522" y="367.304" width="33.391" height="77.913"/>
<g>
</g>
<g>
</g>
<g>
</g>
<g>
</g>
<g>
</g>
<g>
</g>
<g>
</g>
<g>
</g>
<g>
</g>
<g>
</g>
<g>
</g>
<g>
</g>
<g>
</g>
<g>
</g>
<g>
</g>
</svg>
