<?xml version="1.0" encoding="iso-8859-1"?>
<!-- Generator: Adobe Illustrator 19.0.0, SVG Export Plug-In . SVG Version: 6.00 Build 0)  -->
<svg xmlns="http://www.w3.org/2000/svg" xmlns:xlink="http://www.w3.org/1999/xlink" version="1.1" id="Layer_1" x="0px" y="0px" viewBox="0 0 512 512" style="enable-background:new 0 0 512 512;" xml:space="preserve">
<polygon style="fill:#FFA733;" points="378.435,66.783 378.435,33.391 345.043,33.391 345.043,0 166.957,0 166.957,33.391   133.565,33.391 133.565,66.783 100.174,66.783 100.174,200.348 133.565,200.348 133.565,322.783 166.957,322.783 166.957,411.826   200.348,411.826 200.348,478.609 233.739,478.609 233.739,512 278.261,512 278.261,478.609 311.652,478.609 311.652,411.826   345.043,411.826 345.043,322.783 378.435,322.783 378.435,200.348 411.826,200.348 411.826,66.783 "/>
<polygon style="fill:#663A00;" points="411.826,66.783 378.435,66.783 378.435,33.391 345.043,33.391 345.043,0 166.957,0   166.957,33.391 133.565,33.391 133.565,66.783 100.174,66.783 100.174,200.348 133.565,200.348 133.565,233.739 378.435,233.739   378.435,200.348 411.826,200.348 "/>
<polygon points="233.739,478.609 233.739,512 278.261,512 278.261,478.609 233.739,478.609 233.739,411.826 200.348,411.826   200.348,478.609 "/>
<polygon points="311.652,411.826 345.043,411.826 345.043,322.783 311.652,322.783 311.652,411.826 278.261,411.826   278.261,478.609 311.652,478.609 "/>
<rect x="166.957" y="322.783" width="33.391" height="89.043"/>
<rect x="166.957" width="178.087" height="33.391"/>
<rect x="345.043" y="33.391" width="33.391" height="33.391"/>
<rect x="378.435" y="66.783" width="33.391" height="133.565"/>
<polygon points="133.565,66.783 166.957,66.783 166.957,33.391 133.565,33.391 133.565,66.783 100.174,66.783 100.174,200.348   133.565,200.348 "/>
<polygon points="133.566,222.609 133.565,222.609 133.565,322.783 166.957,322.783 166.957,233.739 345.043,233.739   345.043,322.783 378.435,322.783 378.435,233.739 378.436,233.739 378.435,200.348 133.565,200.348 "/>
<g>
	<rect x="166.957" y="33.391" style="fill:#FFFFFF;" width="33.391" height="33.391"/>
	<rect x="133.565" y="100.174" style="fill:#FFFFFF;" width="33.391" height="66.783"/>
</g>
<g>
</g>
<g>
</g>
<g>
</g>
<g>
</g>
<g>
</g>
<g>
</g>
<g>
</g>
<g>
</g>
<g>
</g>
<g>
</g>
<g>
</g>
<g>
</g>
<g>
</g>
<g>
</g>
<g>
</g>
</svg>
