<?xml version="1.0" encoding="iso-8859-1"?>
<!-- Generator: Adobe Illustrator 19.0.0, SVG Export Plug-In . SVG Version: 6.00 Build 0)  -->
<svg xmlns="http://www.w3.org/2000/svg" xmlns:xlink="http://www.w3.org/1999/xlink" version="1.1" id="Layer_1" x="0px" y="0px" viewBox="0 0 512 512" style="enable-background:new 0 0 512 512;" xml:space="preserve">
<polygon style="fill:#AA6100;" points="422.957,33.391 389.565,33.391 389.565,0 122.435,0 122.435,33.391 89.043,33.391   89.043,478.609 122.435,478.609 122.435,512 389.565,512 389.565,478.609 422.957,478.609 "/>
<polygon style="fill:#FFDA44;" points="422.957,300.522 89.043,300.522 89.043,478.609 122.435,478.609 122.435,512 389.565,512   389.565,478.609 422.957,478.609 "/>
<path style="fill:#663A00;" d="M422.957,133.565v-33.391H322.783V0h-33.391v100.174h-66.783V0h-33.391v100.174H89.043v33.391  h100.174v66.783H89.043v33.391h100.174v100.174h33.391V233.739h66.783v100.174h33.391V233.739h100.174v-33.391H322.783v-66.783  H422.957z M289.391,200.348h-66.783v-66.783h66.783V200.348z"/>
<rect x="122.435" width="267.13" height="33.391"/>
<polygon points="389.565,33.391 389.565,300.522 122.435,300.522 122.435,33.391 89.043,33.391 89.043,478.609 122.435,478.609   122.435,333.913 389.565,333.913 389.565,478.609 422.957,478.609 422.957,33.391 "/>
<rect x="122.435" y="478.609" width="267.13" height="33.391"/>
<g>
</g>
<g>
</g>
<g>
</g>
<g>
</g>
<g>
</g>
<g>
</g>
<g>
</g>
<g>
</g>
<g>
</g>
<g>
</g>
<g>
</g>
<g>
</g>
<g>
</g>
<g>
</g>
<g>
</g>
</svg>
