<?xml version="1.0" encoding="iso-8859-1"?>
<!-- Generator: Adobe Illustrator 19.0.0, SVG Export Plug-In . SVG Version: 6.00 Build 0)  -->
<svg xmlns="http://www.w3.org/2000/svg" xmlns:xlink="http://www.w3.org/1999/xlink" version="1.1" id="Layer_1" x="0px" y="0px" viewBox="0 0 512 512" style="enable-background:new 0 0 512 512;" xml:space="preserve">
<polygon style="fill:#FFEF2A;" points="478.609,122.435 478.609,89.043 333.913,89.043 333.913,33.391 300.522,33.391 300.522,0   211.478,0 211.478,33.391 178.087,33.391 178.087,89.043 0,89.043 0,512 512,512 512,122.435 "/>
<polygon style="fill:#663A00;" points="478.609,122.435 478.609,89.043 0,89.043 0,189.217 411.826,189.217 411.826,512 512,512   512,122.435 "/>
<rect y="155.826" style="fill:#F490C0;" width="445.217" height="133.565"/>
<rect y="378.435" style="fill:#57A4FF;" width="445.217" height="133.565"/>
<polygon style="fill:#FF3501;" points="300.522,33.391 300.522,0 211.478,0 211.478,33.391 178.087,33.391 178.087,122.435   333.913,122.435 333.913,33.391 "/>
<path d="M478.609,122.435v356.174h-33.391V155.826H33.391v-33.391h144.696l0,0h33.391l0,0h89.043l0,0h33.391l0,0H478.609V89.043  H333.913V33.391h-33.391v55.652h-89.043V33.391h-33.391v55.652H0l0,0l0,0v66.783l0,0v33.391l0,0V256l0,0v33.391l0,0v89.043l0,0  v33.391l0,0V512h33.391l0,0h378.435l0,0h33.391l0,0h33.391l0,0H512V122.435H478.609z M33.391,189.217h378.435V256H33.391V189.217z   M33.391,289.391h378.435v89.043H33.391V289.391z M33.391,478.609v-66.783h378.435v66.783H33.391z"/>
<rect x="211.478" width="89.043" height="33.391"/>
<g>
</g>
<g>
</g>
<g>
</g>
<g>
</g>
<g>
</g>
<g>
</g>
<g>
</g>
<g>
</g>
<g>
</g>
<g>
</g>
<g>
</g>
<g>
</g>
<g>
</g>
<g>
</g>
<g>
</g>
</svg>
