<?xml version="1.0" encoding="iso-8859-1"?>
<!-- Generator: Adobe Illustrator 19.0.0, SVG Export Plug-In . SVG Version: 6.00 Build 0)  -->
<svg xmlns="http://www.w3.org/2000/svg" xmlns:xlink="http://www.w3.org/1999/xlink" version="1.1" id="Layer_1" x="0px" y="0px" viewBox="0 0 512 512" style="enable-background:new 0 0 512 512;" xml:space="preserve">
<polygon style="fill:#FFA733;" points="456.348,100.174 422.957,100.174 422.957,66.783 389.565,66.783 389.565,33.391   322.783,33.391 322.783,0 189.217,0 189.217,33.391 122.435,33.391 122.435,66.783 89.043,66.783 89.043,100.174 55.652,100.174   55.652,411.826 89.043,411.826 89.043,445.217 122.435,445.217 122.435,478.609 189.217,478.609 189.217,512 322.783,512   322.783,478.609 389.565,478.609 389.565,445.217 422.957,445.217 422.957,411.826 456.348,411.826 "/>
<polygon style="fill:#FF5023;" points="356.174,33.391 322.783,33.391 322.783,0 189.217,0 189.217,33.391 155.826,33.391   155.826,478.609 189.217,478.609 189.217,512 322.783,512 322.783,478.609 356.174,478.609 "/>
<g>
	<rect x="256" y="89.043" style="fill:#FFEF2A;" width="33.391" height="33.391"/>
	<rect x="222.609" y="122.435" style="fill:#FFEF2A;" width="33.391" height="33.391"/>
	<rect x="256" y="155.826" style="fill:#FFEF2A;" width="33.391" height="33.391"/>
	<rect x="222.609" y="189.217" style="fill:#FFEF2A;" width="33.391" height="33.391"/>
	<rect x="256" y="222.609" style="fill:#FFEF2A;" width="33.391" height="33.391"/>
	<rect x="222.609" y="256" style="fill:#FFEF2A;" width="33.391" height="33.391"/>
	<rect x="256" y="289.391" style="fill:#FFEF2A;" width="33.391" height="33.391"/>
	<rect x="222.609" y="322.783" style="fill:#FFEF2A;" width="33.391" height="33.391"/>
	<rect x="256" y="356.174" style="fill:#FFEF2A;" width="33.391" height="33.391"/>
	<rect x="222.609" y="389.565" style="fill:#FFEF2A;" width="33.391" height="33.391"/>
</g>
<rect x="189.217" width="133.565" height="33.391"/>
<rect x="389.565" y="66.783" width="33.391" height="33.391"/>
<rect x="89.043" y="66.783" width="33.391" height="33.391"/>
<rect x="55.652" y="100.174" width="33.391" height="311.652"/>
<rect x="89.043" y="411.826" width="33.391" height="33.391"/>
<polygon points="189.217,33.391 122.435,33.391 122.435,66.783 155.826,66.783 155.826,445.217 122.435,445.217 122.435,478.609   189.217,478.609 "/>
<polygon points="356.174,66.783 389.565,66.783 389.565,33.391 322.783,33.391 322.783,478.609 389.565,478.609 389.565,445.217   356.174,445.217 "/>
<rect x="389.565" y="411.826" width="33.391" height="33.391"/>
<rect x="422.957" y="100.174" width="33.391" height="311.652"/>
<rect x="189.217" y="478.609" width="133.565" height="33.391"/>
<g>
</g>
<g>
</g>
<g>
</g>
<g>
</g>
<g>
</g>
<g>
</g>
<g>
</g>
<g>
</g>
<g>
</g>
<g>
</g>
<g>
</g>
<g>
</g>
<g>
</g>
<g>
</g>
<g>
</g>
</svg>
