<?xml version="1.0" encoding="iso-8859-1"?>
<!-- Generator: Adobe Illustrator 19.0.0, SVG Export Plug-In . SVG Version: 6.00 Build 0)  -->
<svg xmlns="http://www.w3.org/2000/svg" xmlns:xlink="http://www.w3.org/1999/xlink" version="1.1" id="Layer_1" x="0px" y="0px" viewBox="0 0 512 512" style="enable-background:new 0 0 512 512;" xml:space="preserve">
<polygon style="fill:#FFFFFF;" points="512,311.652 478.609,311.652 478.609,244.87 445.217,244.87 445.217,178.087   411.826,178.087 411.826,133.565 378.435,133.565 378.435,100.174 345.043,100.174 345.043,66.783 311.652,66.783 311.652,33.391   200.348,33.391 200.348,66.783 166.957,66.783 166.957,100.174 133.565,100.174 133.565,133.565 100.174,133.565 100.174,178.087   66.783,178.087 66.783,244.87 33.391,244.87 33.391,311.652 0,311.652 0,445.217 33.391,445.217 33.391,478.609 478.609,478.609   478.609,445.217 512,445.217 "/>
<rect x="122.435" y="278.261" style="fill:#3E3D42;" width="267.13" height="200.348"/>
<rect x="200.348" y="33.391" width="111.304" height="33.391"/>
<rect x="311.652" y="66.783" width="33.391" height="33.391"/>
<rect x="345.043" y="100.174" width="33.391" height="33.391"/>
<rect x="378.435" y="133.565" width="33.391" height="44.522"/>
<rect x="411.826" y="178.087" width="33.391" height="66.783"/>
<rect x="445.217" y="244.87" width="33.391" height="66.783"/>
<rect x="478.609" y="311.652" width="33.391" height="133.565"/>
<rect y="311.652" width="33.391" height="133.565"/>
<rect x="133.565" y="100.174" width="33.391" height="33.391"/>
<rect x="100.174" y="133.565" width="33.391" height="44.522"/>
<rect x="66.783" y="178.087" width="33.391" height="66.783"/>
<rect x="33.391" y="244.87" width="33.391" height="66.783"/>
<path d="M389.565,278.261h-267.13v166.957H33.391v33.391h445.217v-33.391h-89.043V278.261z M322.783,445.217v-33.391h-33.391v33.391  h-66.783v-33.391h-33.391v33.391h-33.391v-66.783h33.391v-33.391h-33.391v-33.391h33.391v33.391h33.391v-33.391h66.783v33.391  h33.391v-33.391h33.391v66.783h-33.391v33.391h33.391v33.391H322.783z"/>
<rect x="256" y="345.043" width="33.391" height="33.391"/>
<rect x="222.609" y="378.435" width="33.391" height="33.391"/>
<rect x="166.957" y="66.783" width="33.391" height="33.391"/>
<g>
</g>
<g>
</g>
<g>
</g>
<g>
</g>
<g>
</g>
<g>
</g>
<g>
</g>
<g>
</g>
<g>
</g>
<g>
</g>
<g>
</g>
<g>
</g>
<g>
</g>
<g>
</g>
<g>
</g>
</svg>
