<?xml version="1.0" encoding="iso-8859-1"?>
<!-- Generator: Adobe Illustrator 19.0.0, SVG Export Plug-In . SVG Version: 6.00 Build 0)  -->
<svg xmlns="http://www.w3.org/2000/svg" xmlns:xlink="http://www.w3.org/1999/xlink" version="1.1" id="Layer_1" x="0px" y="0px" viewBox="0 0 512 512" style="enable-background:new 0 0 512 512;" xml:space="preserve">
<polygon style="fill:#FFFFFF;" points="478.609,66.783 478.609,33.391 33.391,33.391 33.391,66.783 0,66.783 0,300.522   33.391,300.522 33.391,445.217 66.783,445.217 66.783,478.609 445.217,478.609 445.217,445.217 478.609,445.217 478.609,300.522   512,300.522 512,66.783 "/>
<polygon style="fill:#FF7956;" points="512,66.783 478.609,66.783 478.609,33.391 33.391,33.391 33.391,66.783 0,66.783 0,300.522   33.391,300.522 33.391,333.913 478.609,333.913 478.609,300.522 512,300.522 "/>
<rect x="33.391" y="300.522" style="fill:#FF5023;" width="445.217" height="33.391"/>
<g>
	<rect x="66.783" y="267.13" style="fill:#FFBCAB;" width="33.391" height="33.391"/>
	<rect x="100.174" y="233.739" style="fill:#FFBCAB;" width="33.391" height="33.391"/>
	<rect x="133.565" y="200.348" style="fill:#FFBCAB;" width="33.391" height="33.391"/>
	<rect x="166.957" y="166.957" style="fill:#FFBCAB;" width="33.391" height="33.391"/>
	<rect x="200.348" y="133.565" style="fill:#FFBCAB;" width="33.391" height="33.391"/>
	<rect x="233.739" y="100.174" style="fill:#FFBCAB;" width="33.391" height="33.391"/>
	<rect x="267.13" y="66.783" style="fill:#FFBCAB;" width="33.391" height="33.391"/>
	<rect x="300.522" y="33.391" style="fill:#FFBCAB;" width="33.391" height="33.391"/>
	<rect x="33.391" y="300.522" style="fill:#FFBCAB;" width="33.391" height="33.391"/>
	<rect x="33.391" y="166.957" style="fill:#FFBCAB;" width="33.391" height="33.391"/>
	<rect x="66.783" y="133.565" style="fill:#FFBCAB;" width="33.391" height="33.391"/>
	<rect x="100.174" y="100.174" style="fill:#FFBCAB;" width="33.391" height="33.391"/>
	<rect x="133.565" y="66.783" style="fill:#FFBCAB;" width="33.391" height="33.391"/>
	<rect x="166.957" y="33.391" style="fill:#FFBCAB;" width="33.391" height="33.391"/>
	<rect y="200.348" style="fill:#FFBCAB;" width="33.391" height="33.391"/>
	<rect x="211.478" y="267.13" style="fill:#FFBCAB;" width="33.391" height="33.391"/>
	<rect x="244.87" y="233.739" style="fill:#FFBCAB;" width="33.391" height="33.391"/>
	<rect x="278.261" y="200.348" style="fill:#FFBCAB;" width="33.391" height="33.391"/>
	<rect x="311.652" y="166.957" style="fill:#FFBCAB;" width="33.391" height="33.391"/>
	<rect x="345.043" y="133.565" style="fill:#FFBCAB;" width="33.391" height="33.391"/>
	<rect x="378.435" y="100.174" style="fill:#FFBCAB;" width="33.391" height="33.391"/>
	<rect x="411.826" y="66.783" style="fill:#FFBCAB;" width="33.391" height="33.391"/>
	<rect x="445.217" y="33.391" style="fill:#FFBCAB;" width="33.391" height="33.391"/>
	<rect x="178.087" y="300.522" style="fill:#FFBCAB;" width="33.391" height="33.391"/>
	<rect x="345.043" y="267.13" style="fill:#FFBCAB;" width="33.391" height="33.391"/>
	<rect x="378.435" y="233.739" style="fill:#FFBCAB;" width="33.391" height="33.391"/>
	<rect x="411.826" y="200.348" style="fill:#FFBCAB;" width="33.391" height="33.391"/>
	<rect x="445.217" y="166.957" style="fill:#FFBCAB;" width="33.391" height="33.391"/>
	<rect x="478.609" y="133.565" style="fill:#FFBCAB;" width="33.391" height="33.391"/>
	<rect x="311.652" y="300.522" style="fill:#FFBCAB;" width="33.391" height="33.391"/>
</g>
<rect x="66.783" y="445.217" width="378.435" height="33.391"/>
<rect x="33.391" y="33.391" width="445.217" height="33.391"/>
<rect x="478.609" y="66.783" width="33.391" height="233.739"/>
<rect y="66.783" width="33.391" height="233.739"/>
<rect x="445.217" y="300.522" width="33.391" height="144.696"/>
<rect x="33.391" y="300.522" width="33.391" height="144.696"/>
<g>
</g>
<g>
</g>
<g>
</g>
<g>
</g>
<g>
</g>
<g>
</g>
<g>
</g>
<g>
</g>
<g>
</g>
<g>
</g>
<g>
</g>
<g>
</g>
<g>
</g>
<g>
</g>
<g>
</g>
</svg>
