<?xml version="1.0" encoding="iso-8859-1"?>
<!-- Generator: Adobe Illustrator 19.0.0, SVG Export Plug-In . SVG Version: 6.00 Build 0)  -->
<svg xmlns="http://www.w3.org/2000/svg" xmlns:xlink="http://www.w3.org/1999/xlink" version="1.1" id="Layer_1" x="0px" y="0px" viewBox="0 0 512 512" style="enable-background:new 0 0 512 512;" xml:space="preserve">
<polygon style="fill:#FF7956;" points="512,55.652 478.609,55.652 478.609,22.261 33.391,22.261 33.391,55.652 0,55.652 0,456.348   33.391,456.348 33.391,489.739 478.609,489.739 478.609,456.348 512,456.348 "/>
<polygon style="fill:#FF5023;" points="512,289.391 0,289.391 0,456.348 33.391,456.348 33.391,489.739 478.609,489.739   478.609,456.348 512,456.348 "/>
<g>
	<rect x="66.783" y="256" style="fill:#FFBCAB;" width="33.391" height="33.391"/>
	<rect x="100.174" y="222.609" style="fill:#FFBCAB;" width="33.391" height="33.391"/>
	<rect x="133.565" y="189.217" style="fill:#FFBCAB;" width="33.391" height="33.391"/>
	<rect x="166.957" y="155.826" style="fill:#FFBCAB;" width="33.391" height="33.391"/>
	<rect x="200.348" y="122.435" style="fill:#FFBCAB;" width="33.391" height="33.391"/>
	<rect x="233.739" y="89.043" style="fill:#FFBCAB;" width="33.391" height="33.391"/>
	<rect x="267.13" y="55.652" style="fill:#FFBCAB;" width="33.391" height="33.391"/>
	<rect x="33.391" y="155.826" style="fill:#FFBCAB;" width="33.391" height="33.391"/>
	<rect x="66.783" y="122.435" style="fill:#FFBCAB;" width="33.391" height="33.391"/>
	<rect x="100.174" y="89.043" style="fill:#FFBCAB;" width="33.391" height="33.391"/>
	<rect x="133.565" y="55.652" style="fill:#FFBCAB;" width="33.391" height="33.391"/>
	<rect x="211.478" y="256" style="fill:#FFBCAB;" width="33.391" height="33.391"/>
	<rect x="244.87" y="222.609" style="fill:#FFBCAB;" width="33.391" height="33.391"/>
	<rect x="278.261" y="189.217" style="fill:#FFBCAB;" width="33.391" height="33.391"/>
	<rect x="311.652" y="155.826" style="fill:#FFBCAB;" width="33.391" height="33.391"/>
	<rect x="345.043" y="122.435" style="fill:#FFBCAB;" width="33.391" height="33.391"/>
	<rect x="378.435" y="89.043" style="fill:#FFBCAB;" width="33.391" height="33.391"/>
	<rect x="411.826" y="55.652" style="fill:#FFBCAB;" width="33.391" height="33.391"/>
	<rect x="345.043" y="256" style="fill:#FFBCAB;" width="33.391" height="33.391"/>
	<rect x="378.435" y="222.609" style="fill:#FFBCAB;" width="33.391" height="33.391"/>
	<rect x="411.826" y="189.217" style="fill:#FFBCAB;" width="33.391" height="33.391"/>
	<rect x="445.217" y="155.826" style="fill:#FFBCAB;" width="33.391" height="33.391"/>
	<rect x="478.609" y="122.435" style="fill:#FFBCAB;" width="33.391" height="33.391"/>
	<rect x="445.217" y="22.261" style="fill:#FFBCAB;" width="33.391" height="33.391"/>
	<rect x="300.522" y="22.261" style="fill:#FFBCAB;" width="33.391" height="33.391"/>
	<rect x="166.957" y="22.261" style="fill:#FFBCAB;" width="33.391" height="33.391"/>
	<rect y="189.217" style="fill:#FFBCAB;" width="33.391" height="33.391"/>
</g>
<g>
	<rect x="44.522" y="422.957" style="fill:#FF9478;" width="33.391" height="33.391"/>
	<rect x="77.913" y="389.565" style="fill:#FF9478;" width="33.391" height="33.391"/>
	<rect x="111.304" y="356.174" style="fill:#FF9478;" width="33.391" height="33.391"/>
	<rect x="144.696" y="322.783" style="fill:#FF9478;" width="33.391" height="33.391"/>
	<rect x="178.087" y="422.957" style="fill:#FF9478;" width="33.391" height="33.391"/>
	<rect x="211.478" y="389.565" style="fill:#FF9478;" width="33.391" height="33.391"/>
	<rect x="244.87" y="356.174" style="fill:#FF9478;" width="33.391" height="33.391"/>
	<rect x="278.261" y="322.783" style="fill:#FF9478;" width="33.391" height="33.391"/>
	<rect x="345.043" y="422.957" style="fill:#FF9478;" width="33.391" height="33.391"/>
	<rect x="378.435" y="389.565" style="fill:#FF9478;" width="33.391" height="33.391"/>
	<rect x="411.826" y="356.174" style="fill:#FF9478;" width="33.391" height="33.391"/>
	<rect x="33.391" y="289.391" style="fill:#FF9478;" width="33.391" height="33.391"/>
	<rect y="322.783" style="fill:#FF9478;" width="33.391" height="33.391"/>
	<rect x="178.087" y="289.391" style="fill:#FF9478;" width="33.391" height="33.391"/>
	<rect x="311.652" y="289.391" style="fill:#FF9478;" width="33.391" height="33.391"/>
	<rect x="445.217" y="322.783" style="fill:#FF9478;" width="33.391" height="33.391"/>
	<rect x="144.696" y="456.348" style="fill:#FF9478;" width="33.391" height="33.391"/>
	<rect x="311.652" y="456.348" style="fill:#FF9478;" width="33.391" height="33.391"/>
	<rect x="478.609" y="289.391" style="fill:#FF9478;" width="33.391" height="33.391"/>
</g>
<rect x="33.391" y="456.348" width="445.217" height="33.391"/>
<rect x="33.391" y="22.261" width="445.217" height="33.391"/>
<rect x="478.609" y="55.652" width="33.391" height="400.696"/>
<rect y="55.652" width="33.391" height="400.696"/>
<g>
</g>
<g>
</g>
<g>
</g>
<g>
</g>
<g>
</g>
<g>
</g>
<g>
</g>
<g>
</g>
<g>
</g>
<g>
</g>
<g>
</g>
<g>
</g>
<g>
</g>
<g>
</g>
<g>
</g>
</svg>
