<?xml version="1.0" encoding="iso-8859-1"?>
<!-- Generator: Adobe Illustrator 19.0.0, SVG Export Plug-In . SVG Version: 6.00 Build 0)  -->
<svg xmlns="http://www.w3.org/2000/svg" xmlns:xlink="http://www.w3.org/1999/xlink" version="1.1" id="Layer_1" x="0px" y="0px" viewBox="0 0 512 512" style="enable-background:new 0 0 512 512;" xml:space="preserve">
<polygon style="fill:#FFFFFF;" points="384,155.826 350.609,155.826 350.609,122.435 306.087,122.435 306.087,33.391   272.696,33.391 272.696,0 239.304,0 239.304,33.391 205.913,33.391 205.913,122.435 161.391,122.435 161.391,155.826 128,155.826   128,478.609 161.391,478.609 161.391,512 350.609,512 350.609,478.609 384,478.609 "/>
<polygon style="fill:#D80027;" points="384,189.217 128,189.217 128,478.609 161.391,478.609 161.391,512 350.609,512   350.609,478.609 384,478.609 "/>
<rect x="239.304" width="33.391" height="33.391"/>
<rect x="205.913" y="33.391" width="33.391" height="89.043"/>
<rect x="272.696" y="33.391" width="33.391" height="89.043"/>
<rect x="161.391" y="122.435" width="44.522" height="33.391"/>
<rect x="306.087" y="122.435" width="44.522" height="33.391"/>
<rect x="161.391" y="478.609" width="189.217" height="33.391"/>
<polygon points="350.609,155.826 350.609,189.217 161.391,189.217 161.391,155.826 128,155.826 128,478.609 161.391,478.609   161.391,222.609 350.609,222.609 350.609,478.609 384,478.609 384,155.826 "/>
<rect x="194.783" y="256" style="fill:#FFFFFF;" width="122.435" height="189.217"/>
<path d="M194.783,256v189.217h122.435V256H194.783z M283.826,411.826h-55.652V289.391h55.652V411.826z"/>
<g>
</g>
<g>
</g>
<g>
</g>
<g>
</g>
<g>
</g>
<g>
</g>
<g>
</g>
<g>
</g>
<g>
</g>
<g>
</g>
<g>
</g>
<g>
</g>
<g>
</g>
<g>
</g>
<g>
</g>
</svg>
