<?xml version="1.0" encoding="iso-8859-1"?>
<!-- Generator: Adobe Illustrator 19.0.0, SVG Export Plug-In . SVG Version: 6.00 Build 0)  -->
<svg xmlns="http://www.w3.org/2000/svg" xmlns:xlink="http://www.w3.org/1999/xlink" version="1.1" id="Layer_1" x="0px" y="0px" viewBox="0 0 512 512" style="enable-background:new 0 0 512 512;" xml:space="preserve">
<polygon style="fill:#FFBCAB;" points="495.304,166.957 461.913,166.957 461.913,100.174 428.522,100.174 428.522,66.783   395.13,66.783 395.13,33.391 350.609,33.391 350.609,0 83.478,0 83.478,33.391 50.087,33.391 50.087,66.783 16.696,66.783   16.696,166.957 50.087,166.957 50.087,200.348 83.478,200.348 83.478,233.739 294.957,233.739 294.957,267.13 328.348,267.13   328.348,311.652 205.913,311.652 205.913,389.565 239.304,389.565 239.304,422.957 294.957,422.957 294.957,512 361.739,512   361.739,478.609 395.13,478.609 395.13,445.217 428.522,445.217 428.522,378.435 461.913,378.435 461.913,345.043 495.304,345.043   "/>
<polygon style="fill:#FF7956;" points="428.522,66.783 395.13,66.783 395.13,33.391 350.609,33.391 350.609,0 217.043,0   217.043,66.783 250.435,66.783 250.435,166.957 217.043,166.957 217.043,233.739 294.957,233.739 294.957,267.13 361.739,267.13   361.739,233.739 395.13,233.739 395.13,200.348 428.522,200.348 "/>
<polygon style="fill:#FF5023;" points="428.522,378.435 361.739,378.435 361.739,311.652 205.913,311.652 205.913,389.565   239.304,389.565 239.304,422.957 294.957,422.957 294.957,512 361.739,512 361.739,478.609 395.13,478.609 395.13,445.217   428.522,445.217 "/>
<rect x="83.478" width="267.13" height="33.391"/>
<rect x="50.087" y="33.391" width="33.391" height="33.391"/>
<rect x="16.696" y="66.783" width="33.391" height="100.174"/>
<rect x="50.087" y="166.957" width="33.391" height="33.391"/>
<rect x="83.478" y="200.348" width="211.478" height="33.391"/>
<polygon points="361.739,345.043 361.739,233.739 294.957,233.739 294.957,267.13 328.348,267.13 328.348,311.652 205.913,311.652   205.913,389.565 239.304,389.565 239.304,345.043 "/>
<polygon points="328.348,389.565 239.304,389.565 239.304,422.957 294.957,422.957 294.957,512 361.739,512 361.739,478.609   328.348,478.609 "/>
<rect x="361.739" y="445.217" width="33.391" height="33.391"/>
<rect x="395.13" y="378.435" width="33.391" height="66.783"/>
<rect x="428.522" y="345.043" width="33.391" height="33.391"/>
<rect x="461.913" y="166.957" width="33.391" height="178.087"/>
<rect x="350.609" y="33.391" width="44.522" height="33.391"/>
<rect x="395.13" y="66.783" width="33.391" height="33.391"/>
<rect x="428.522" y="100.174" width="33.391" height="66.783"/>
<g>
</g>
<g>
</g>
<g>
</g>
<g>
</g>
<g>
</g>
<g>
</g>
<g>
</g>
<g>
</g>
<g>
</g>
<g>
</g>
<g>
</g>
<g>
</g>
<g>
</g>
<g>
</g>
<g>
</g>
</svg>
