<?xml version="1.0" encoding="iso-8859-1"?>
<!-- Generator: Adobe Illustrator 19.0.0, SVG Export Plug-In . SVG Version: 6.00 Build 0)  -->
<svg xmlns="http://www.w3.org/2000/svg" xmlns:xlink="http://www.w3.org/1999/xlink" version="1.1" id="Layer_1" x="0px" y="0px" viewBox="0 0 512 512" style="enable-background:new 0 0 512 512;" xml:space="preserve">
<g>
	<rect x="400.696" y="55.652" style="fill:#966EC5;" width="33.391" height="33.391"/>
	<rect x="434.087" y="22.261" style="fill:#966EC5;" width="77.913" height="33.391"/>
	<path style="fill:#966EC5;" d="M367.304,89.043V55.652h-33.391V22.261H233.739v33.391h-33.391H100.174v33.391H66.783v100.174   v33.391H33.391v100.174v33.391H0v100.174h33.391v33.391h100.174v-33.391h33.391H267.13v-33.391h33.391h100.174v-33.391h33.391   V289.391V256h33.391V155.826h-33.391v-33.391h-33.391V89.043H367.304z"/>
</g>
<rect x="233.739" y="22.261" width="100.174" height="33.391"/>
<polygon points="367.304,89.043 367.304,55.652 333.913,55.652 333.913,155.826 434.087,155.826 434.087,122.435 400.696,122.435   400.696,89.043 "/>
<rect x="400.696" y="55.652" width="33.391" height="33.391"/>
<rect x="434.087" y="22.261" width="77.913" height="33.391"/>
<rect x="434.087" y="155.826" width="33.391" height="100.174"/>
<polygon points="300.522,289.391 200.348,289.391 200.348,189.217 100.174,189.217 100.174,89.043 66.783,89.043 66.783,222.609   166.957,222.609 166.957,322.783 267.13,322.783 267.13,422.957 400.696,422.957 400.696,389.565 300.522,389.565 "/>
<polygon points="333.913,256 333.913,155.826 233.739,155.826 233.739,55.652 100.174,55.652 100.174,89.043 200.348,89.043   200.348,189.217 300.522,189.217 300.522,289.391 400.696,289.391 400.696,389.565 434.087,389.565 434.087,256 "/>
<polygon points="166.957,322.783 66.783,322.783 66.783,222.609 33.391,222.609 33.391,356.174 133.565,356.174 133.565,456.348   267.13,456.348 267.13,422.957 166.957,422.957 "/>
<rect y="356.174" width="33.391" height="100.174"/>
<rect x="33.391" y="456.348" width="100.174" height="33.391"/>
<g>
</g>
<g>
</g>
<g>
</g>
<g>
</g>
<g>
</g>
<g>
</g>
<g>
</g>
<g>
</g>
<g>
</g>
<g>
</g>
<g>
</g>
<g>
</g>
<g>
</g>
<g>
</g>
<g>
</g>
</svg>
