<?xml version="1.0" encoding="iso-8859-1"?>
<!-- Generator: Adobe Illustrator 19.0.0, SVG Export Plug-In . SVG Version: 6.00 Build 0)  -->
<svg xmlns="http://www.w3.org/2000/svg" xmlns:xlink="http://www.w3.org/1999/xlink" version="1.1" id="Layer_1" x="0px" y="0px" viewBox="0 0 512 512" style="enable-background:new 0 0 512 512;" xml:space="preserve">
<g>
	<polygon style="fill:#787580;" points="205.913,0 172.522,0 172.522,166.957 139.13,166.957 139.13,200.348 172.522,200.348    172.522,512 205.913,512 205.913,200.348 239.304,200.348 239.304,166.957 205.913,166.957  "/>
	<rect x="105.739" style="fill:#787580;" width="33.391" height="166.957"/>
	<rect x="239.304" style="fill:#787580;" width="33.391" height="166.957"/>
	<polygon style="fill:#787580;" points="339.478,0 339.478,33.391 306.087,33.391 306.087,233.739 339.478,233.739 339.478,267.13    372.87,267.13 372.87,512 406.261,512 406.261,0 406.261,0  "/>
</g>
<polygon points="205.913,0 172.522,0 172.522,166.957 139.13,166.957 139.13,200.348 172.522,200.348 172.522,512 205.913,512   205.913,200.348 239.304,200.348 239.304,166.957 205.913,166.957 "/>
<rect x="105.739" width="33.391" height="166.957"/>
<rect x="239.304" width="33.391" height="166.957"/>
<rect x="306.087" y="33.391" width="33.391" height="200.348"/>
<polygon points="339.478,0 339.478,33.391 372.87,33.391 372.87,233.739 339.478,233.739 339.478,267.13 372.87,267.13 372.87,512   406.261,512 406.261,0 "/>
<g>
</g>
<g>
</g>
<g>
</g>
<g>
</g>
<g>
</g>
<g>
</g>
<g>
</g>
<g>
</g>
<g>
</g>
<g>
</g>
<g>
</g>
<g>
</g>
<g>
</g>
<g>
</g>
<g>
</g>
</svg>
