<?xml version="1.0" encoding="iso-8859-1"?>
<!-- Generator: Adobe Illustrator 19.0.0, SVG Export Plug-In . SVG Version: 6.00 Build 0)  -->
<svg xmlns="http://www.w3.org/2000/svg" xmlns:xlink="http://www.w3.org/1999/xlink" version="1.1" id="Layer_1" x="0px" y="0px" viewBox="0 0 512 512" style="enable-background:new 0 0 512 512;" xml:space="preserve">
<path style="fill:#ACABB1;" d="M478.609,395.13V283.826h-33.391v-66.783h-33.391v-33.391h-33.391v-33.391h-66.783V116.87V83.478  V50.087h-33.391h-44.522h-33.391v33.391v33.391v33.391h-66.783v33.391h-33.391v33.391H66.783v66.783H33.391V395.13H0v66.783h512  V395.13H478.609z M233.739,83.478h44.522v33.391h-44.522V83.478z"/>
<polygon style="fill:#787580;" points="478.609,395.13 478.609,361.739 33.391,361.739 33.391,395.13 0,395.13 0,461.913   512,461.913 512,395.13 "/>
<path d="M278.261,150.261h33.391V116.87V83.478V50.087h-33.391h-44.522h-33.391v33.391v33.391v33.391h33.391H278.261z   M233.739,83.478h44.522v33.391h-44.522V83.478z"/>
<rect x="133.565" y="150.261" width="66.783" height="33.391"/>
<rect x="100.174" y="183.652" width="33.391" height="33.391"/>
<rect x="66.783" y="217.043" width="33.391" height="66.783"/>
<polygon points="445.217,395.13 478.609,395.13 478.609,361.739 478.609,283.826 445.217,283.826 445.217,361.739 66.783,361.739   66.783,283.826 33.391,283.826 33.391,361.739 33.391,395.13 66.783,395.13 "/>
<rect x="411.826" y="217.043" width="33.391" height="66.783"/>
<rect x="378.435" y="183.652" width="33.391" height="33.391"/>
<rect x="311.652" y="150.261" width="66.783" height="33.391"/>
<polygon points="478.609,395.13 478.609,428.522 33.391,428.522 33.391,395.13 0,395.13 0,428.522 0,461.913 33.391,461.913   478.609,461.913 512,461.913 512,428.522 512,395.13 "/>
<g>
	<rect x="100.174" y="283.826" style="fill:#FFFFFF;" width="33.391" height="44.522"/>
	<rect x="133.565" y="217.043" style="fill:#FFFFFF;" width="33.391" height="33.391"/>
</g>
<g>
</g>
<g>
</g>
<g>
</g>
<g>
</g>
<g>
</g>
<g>
</g>
<g>
</g>
<g>
</g>
<g>
</g>
<g>
</g>
<g>
</g>
<g>
</g>
<g>
</g>
<g>
</g>
<g>
</g>
</svg>
