<?xml version="1.0" encoding="iso-8859-1"?>
<!-- Generator: Adobe Illustrator 19.0.0, SVG Export Plug-In . SVG Version: 6.00 Build 0)  -->
<svg xmlns="http://www.w3.org/2000/svg" xmlns:xlink="http://www.w3.org/1999/xlink" version="1.1" id="Layer_1" x="0px" y="0px" viewBox="0 0 512 512" style="enable-background:new 0 0 512 512;" xml:space="preserve">
<polygon style="fill:#FFB655;" points="411.826,66.783 378.435,66.783 378.435,33.391 345.043,33.391 345.043,0 166.957,0   166.957,33.391 133.565,33.391 133.565,66.783 100.174,66.783 100.174,378.435 133.565,378.435 133.565,411.826 200.348,411.826   200.348,478.609 233.739,478.609 233.739,512 278.261,512 278.261,478.609 311.652,478.609 311.652,411.826 378.435,411.826   378.435,378.435 411.826,378.435 "/>
<polygon style="fill:#EA348B;" points="411.826,66.783 378.435,66.783 378.435,33.391 345.043,33.391 345.043,0 166.957,0   166.957,33.391 133.565,33.391 133.565,66.783 100.174,66.783 100.174,378.435 133.565,378.435 133.565,411.826 378.435,411.826   378.435,378.435 411.826,378.435 "/>
<rect x="166.957" width="178.087" height="33.391"/>
<rect x="133.565" y="33.391" width="33.391" height="33.391"/>
<rect x="345.043" y="33.391" width="33.391" height="33.391"/>
<rect x="378.435" y="66.783" width="33.391" height="311.652"/>
<rect x="100.174" y="66.783" width="33.391" height="311.652"/>
<polygon points="278.261,378.435 233.739,378.435 200.348,378.435 133.565,378.435 133.565,411.826 200.348,411.826   200.348,478.609 233.739,478.609 233.739,411.826 278.261,411.826 278.261,478.609 311.652,478.609 311.652,411.826   378.435,411.826 378.435,378.435 311.652,378.435 "/>
<rect x="233.739" y="478.609" width="44.522" height="33.391"/>
<rect x="178.087" y="100.174" width="33.391" height="244.87"/>
<rect x="300.522" y="100.174" width="33.391" height="244.87"/>
<g>
</g>
<g>
</g>
<g>
</g>
<g>
</g>
<g>
</g>
<g>
</g>
<g>
</g>
<g>
</g>
<g>
</g>
<g>
</g>
<g>
</g>
<g>
</g>
<g>
</g>
<g>
</g>
<g>
</g>
</svg>
