<?xml version="1.0" encoding="iso-8859-1"?>
<!-- Generator: Adobe Illustrator 19.0.0, SVG Export Plug-In . SVG Version: 6.00 Build 0)  -->
<svg xmlns="http://www.w3.org/2000/svg" xmlns:xlink="http://www.w3.org/1999/xlink" version="1.1" id="Layer_1" x="0px" y="0px" viewBox="0 0 512 512" style="enable-background:new 0 0 512 512;" xml:space="preserve">
<path style="fill:#663A00;" d="M478.609,166.957v-66.783h-33.391V66.783h-33.391V33.391h-66.783V0H166.957v33.391h-66.783v33.391  H66.783v33.391H33.391v66.783H0v178.087h33.391v66.783h33.391v33.391h33.391v33.391h66.783V512h178.087v-33.391h66.783v-33.391  h33.391v-33.391h33.391v-66.783H512V166.957H478.609z M311.652,311.652H200.348V200.348h111.304V311.652z"/>
<rect x="133.565" y="133.565" style="fill:#FFA5B5;" width="33.391" height="33.391"/>
<g>
	<rect x="378.435" y="166.957" style="fill:#999FED;" width="33.391" height="33.391"/>
	<rect x="155.826" y="378.435" style="fill:#999FED;" width="33.391" height="33.391"/>
</g>
<g>
	<rect x="66.783" y="244.87" style="fill:#FFEF2A;" width="33.391" height="33.391"/>
	<rect x="256" y="77.913" style="fill:#FFEF2A;" width="33.391" height="33.391"/>
	<rect x="300.522" y="378.435" style="fill:#FFEF2A;" width="33.391" height="33.391"/>
</g>
<rect x="378.435" y="311.652" style="fill:#FFA5B5;" width="33.391" height="33.391"/>
<rect x="200.348" y="166.957" width="111.304" height="33.391"/>
<rect x="311.652" y="200.348" width="33.391" height="111.304"/>
<rect x="200.348" y="311.652" width="111.304" height="33.391"/>
<rect x="166.957" y="200.348" width="33.391" height="111.304"/>
<rect x="166.957" width="178.087" height="33.391"/>
<rect x="345.043" y="33.391" width="66.783" height="33.391"/>
<rect x="411.826" y="66.783" width="33.391" height="33.391"/>
<rect x="445.217" y="100.174" width="33.391" height="66.783"/>
<rect x="478.609" y="166.957" width="33.391" height="178.087"/>
<rect x="100.174" y="33.391" width="66.783" height="33.391"/>
<rect x="66.783" y="66.783" width="33.391" height="33.391"/>
<rect x="33.391" y="100.174" width="33.391" height="66.783"/>
<rect y="166.957" width="33.391" height="178.087"/>
<rect x="33.391" y="345.043" width="33.391" height="66.783"/>
<rect x="66.783" y="411.826" width="33.391" height="33.391"/>
<rect x="100.174" y="445.217" width="66.783" height="33.391"/>
<rect x="166.957" y="478.609" width="178.087" height="33.391"/>
<rect x="345.043" y="445.217" width="66.783" height="33.391"/>
<rect x="411.826" y="411.826" width="33.391" height="33.391"/>
<rect x="445.217" y="345.043" width="33.391" height="66.783"/>
<g>
</g>
<g>
</g>
<g>
</g>
<g>
</g>
<g>
</g>
<g>
</g>
<g>
</g>
<g>
</g>
<g>
</g>
<g>
</g>
<g>
</g>
<g>
</g>
<g>
</g>
<g>
</g>
<g>
</g>
</svg>
