<?xml version="1.0" encoding="iso-8859-1"?>
<!-- Generator: Adobe Illustrator 19.0.0, SVG Export Plug-In . SVG Version: 6.00 Build 0)  -->
<svg xmlns="http://www.w3.org/2000/svg" xmlns:xlink="http://www.w3.org/1999/xlink" version="1.1" id="Layer_1" x="0px" y="0px" viewBox="0 0 512 512" style="enable-background:new 0 0 512 512;" xml:space="preserve">
<polygon style="fill:#663A00;" points="512,222.609 478.609,222.609 478.609,189.217 33.391,189.217 33.391,222.609 0,222.609   0,478.609 33.391,478.609 33.391,512 478.609,512 478.609,478.609 512,478.609 "/>
<polygon style="fill:#FFFFFF;" points="478.609,222.609 478.609,189.217 33.391,189.217 33.391,222.609 0,222.609 0,322.783   33.391,322.783 66.783,322.783 66.783,356.174 166.957,356.174 166.957,322.783 200.348,322.783 200.348,356.174 311.652,356.174   311.652,322.783 345.043,322.783 345.043,356.174 445.217,356.174 445.217,322.783 478.609,322.783 512,322.783 512,222.609 "/>
<g>
	<rect y="400.696" style="fill:#FF3501;" width="512" height="33.391"/>
	<rect x="100.174" y="66.783" style="fill:#FF3501;" width="33.391" height="155.826"/>
	<rect x="189.217" y="66.783" style="fill:#FF3501;" width="33.391" height="155.826"/>
	<rect x="378.435" y="66.783" style="fill:#FF3501;" width="33.391" height="155.826"/>
	<rect x="289.391" y="66.783" style="fill:#FF3501;" width="33.391" height="155.826"/>
</g>
<g>
	<rect x="100.174" style="fill:#FFA733;" width="33.391" height="33.391"/>
	<rect x="189.217" style="fill:#FFA733;" width="33.391" height="33.391"/>
	<rect x="289.391" style="fill:#FFA733;" width="33.391" height="33.391"/>
	<rect x="378.435" style="fill:#FFA733;" width="33.391" height="33.391"/>
</g>
<polygon points="66.783,322.783 66.783,289.391 33.391,289.391 33.391,222.609 0,222.609 0,478.609 33.391,478.609 33.391,322.783   "/>
<rect x="166.957" y="289.391" width="33.391" height="33.391"/>
<rect x="311.652" y="289.391" width="33.391" height="33.391"/>
<rect x="66.783" y="322.783" width="100.174" height="33.391"/>
<rect x="200.348" y="322.783" width="111.304" height="33.391"/>
<rect x="345.043" y="322.783" width="100.174" height="33.391"/>
<polygon points="478.609,222.609 478.609,289.391 445.217,289.391 445.217,322.783 478.609,322.783 478.609,478.609 512,478.609   512,222.609 "/>
<rect x="33.391" y="478.609" width="445.217" height="33.391"/>
<rect x="33.391" y="189.217" width="445.217" height="33.391"/>
<g>
</g>
<g>
</g>
<g>
</g>
<g>
</g>
<g>
</g>
<g>
</g>
<g>
</g>
<g>
</g>
<g>
</g>
<g>
</g>
<g>
</g>
<g>
</g>
<g>
</g>
<g>
</g>
<g>
</g>
</svg>
