<?xml version="1.0" encoding="iso-8859-1"?>
<!-- Generator: Adobe Illustrator 19.0.0, SVG Export Plug-In . SVG Version: 6.00 Build 0)  -->
<svg xmlns="http://www.w3.org/2000/svg" xmlns:xlink="http://www.w3.org/1999/xlink" version="1.1" id="Layer_1" x="0px" y="0px" viewBox="0 0 512 512" style="enable-background:new 0 0 512 512;" xml:space="preserve">
<polygon style="fill:#FFB655;" points="512,33.391 478.609,33.391 478.609,0 33.391,0 33.391,33.391 0,33.391 0,155.826   33.391,155.826 33.391,222.609 66.783,222.609 66.783,289.391 100.174,289.391 100.174,356.174 133.565,356.174 133.565,389.565   166.957,389.565 166.957,445.217 200.348,445.217 200.348,478.609 233.739,478.609 233.739,512 278.261,512 278.261,478.609   311.652,478.609 311.652,445.217 345.043,445.217 345.043,389.565 378.435,389.565 378.435,356.174 411.826,356.174   411.826,289.391 445.217,289.391 445.217,222.609 478.609,222.609 478.609,155.826 512,155.826 "/>
<polygon style="fill:#AB2300;" points="411.826,100.174 411.826,133.565 378.435,133.565 378.435,100.174 66.783,100.174   66.783,155.826 100.174,155.826 100.174,222.609 133.565,222.609 133.565,289.391 166.957,289.391 166.957,356.174 200.348,356.174   200.348,389.565 233.739,389.565 233.739,445.217 278.261,445.217 278.261,389.565 311.652,389.565 311.652,356.174   345.043,356.174 345.043,289.391 378.435,289.391 378.435,222.609 411.826,222.609 411.826,155.826 445.217,155.826   445.217,133.565 445.217,100.174 "/>
<g>
	<rect x="166.957" y="144.696" style="fill:#FFEF2A;" width="66.783" height="66.783"/>
	<rect x="278.261" y="200.348" style="fill:#FFEF2A;" width="44.522" height="44.522"/>
	<rect x="233.739" y="311.652" style="fill:#FFEF2A;" width="44.522" height="44.522"/>
</g>
<rect x="33.391" width="445.217" height="33.391"/>
<rect x="478.609" y="33.391" width="33.391" height="122.435"/>
<rect x="445.217" y="155.826" width="33.391" height="66.783"/>
<rect x="411.826" y="222.609" width="33.391" height="66.783"/>
<rect x="378.435" y="289.391" width="33.391" height="66.783"/>
<rect x="345.043" y="356.174" width="33.391" height="33.391"/>
<rect x="311.652" y="389.565" width="33.391" height="55.652"/>
<rect x="278.261" y="445.217" width="33.391" height="33.391"/>
<rect x="233.739" y="478.609" width="44.522" height="33.391"/>
<rect x="200.348" y="445.217" width="33.391" height="33.391"/>
<rect x="166.957" y="389.565" width="33.391" height="55.652"/>
<rect x="133.565" y="356.174" width="33.391" height="33.391"/>
<rect x="100.174" y="289.391" width="33.391" height="66.783"/>
<rect x="66.783" y="222.609" width="33.391" height="66.783"/>
<rect x="33.391" y="155.826" width="33.391" height="66.783"/>
<rect y="33.391" width="33.391" height="122.435"/>
<g>
</g>
<g>
</g>
<g>
</g>
<g>
</g>
<g>
</g>
<g>
</g>
<g>
</g>
<g>
</g>
<g>
</g>
<g>
</g>
<g>
</g>
<g>
</g>
<g>
</g>
<g>
</g>
<g>
</g>
</svg>
