<?xml version="1.0" encoding="iso-8859-1"?>
<!-- Generator: Adobe Illustrator 19.0.0, SVG Export Plug-In . SVG Version: 6.00 Build 0)  -->
<svg xmlns="http://www.w3.org/2000/svg" xmlns:xlink="http://www.w3.org/1999/xlink" version="1.1" id="Layer_1" x="0px" y="0px" viewBox="0 0 512 512" style="enable-background:new 0 0 512 512;" xml:space="preserve">
<polygon style="fill:#FFDA44;" points="506.435,166.957 473.043,166.957 473.043,33.391 372.87,33.391 372.87,0 139.13,0   139.13,33.391 38.957,33.391 38.957,166.957 5.565,166.957 5.565,345.043 38.957,345.043 38.957,512 473.043,512 473.043,345.043   506.435,345.043 "/>
<polygon style="fill:#FF3501;" points="506.435,166.957 339.478,166.957 339.478,267.13 172.522,267.13 172.522,166.957   5.565,166.957 5.565,345.043 38.957,345.043 38.957,512 473.043,512 473.043,345.043 506.435,345.043 "/>
<polygon points="439.652,478.609 72.348,478.609 72.348,345.043 38.957,345.043 38.957,478.609 38.957,478.609 38.957,512   473.043,512 473.043,345.043 439.652,345.043 "/>
<path d="M473.043,166.957V33.391H372.87V0H139.13v33.391H38.957v133.565H5.565v178.087h33.391V200.348H139.13v66.783h33.391V33.391  h66.783V267.13h-66.783v33.391h166.957V267.13h33.391v-66.783h100.174v144.696h33.391V166.957H473.043z M139.13,166.957H72.348  V66.783h66.783V166.957z M339.478,267.13h-66.783V33.391h66.783V267.13z M439.652,166.957H372.87V66.783h66.783V166.957z"/>
<g>
</g>
<g>
</g>
<g>
</g>
<g>
</g>
<g>
</g>
<g>
</g>
<g>
</g>
<g>
</g>
<g>
</g>
<g>
</g>
<g>
</g>
<g>
</g>
<g>
</g>
<g>
</g>
<g>
</g>
</svg>
