<?xml version="1.0" encoding="iso-8859-1"?>
<!-- Generator: Adobe Illustrator 19.0.0, SVG Export Plug-In . SVG Version: 6.00 Build 0)  -->
<svg xmlns="http://www.w3.org/2000/svg" xmlns:xlink="http://www.w3.org/1999/xlink" version="1.1" id="Layer_1" x="0px" y="0px" viewBox="0 0 512 512" style="enable-background:new 0 0 512 512;" xml:space="preserve">
<polygon style="fill:#FFA5B5;" points="478.609,166.957 478.609,100.174 445.217,100.174 445.217,66.783 411.826,66.783   411.826,33.391 345.043,33.391 345.043,0 166.957,0 166.957,33.391 100.174,33.391 100.174,66.783 66.783,66.783 66.783,100.174   33.391,100.174 33.391,166.957 0,166.957 0,411.826 33.391,411.826 33.391,445.217 66.783,445.217 66.783,478.609 166.957,478.609   166.957,445.217 233.739,445.217 233.739,478.609 267.13,478.609 267.13,512 445.217,512 445.217,478.609 478.609,478.609   478.609,445.217 512,445.217 512,411.826 512,367.304 512,166.957 "/>
<polygon style="fill:#A5001E;" points="411.826,166.957 411.826,100.174 345.043,100.174 345.043,66.783 166.957,66.783   166.957,100.174 100.174,100.174 100.174,166.957 66.783,166.957 66.783,311.652 166.957,311.652 166.957,278.261 233.739,278.261   233.739,311.652 267.13,311.652 267.13,345.043 445.217,345.043 445.217,166.957 "/>
<rect x="322.783" y="222.609" style="fill:#FFFFFF;" width="66.783" height="66.783"/>
<rect x="166.957" width="178.087" height="33.391"/>
<rect x="100.174" y="33.391" width="66.783" height="33.391"/>
<rect x="33.391" y="100.174" width="33.391" height="66.783"/>
<polygon points="66.783,345.043 66.783,311.652 33.391,311.652 33.391,166.957 0,166.957 0,411.826 33.391,411.826 33.391,345.043   "/>
<rect x="33.391" y="411.826" width="33.391" height="33.391"/>
<rect x="66.783" y="445.217" width="100.174" height="33.391"/>
<rect x="166.957" y="411.826" width="66.783" height="33.391"/>
<rect x="233.739" y="445.217" width="33.391" height="33.391"/>
<rect x="267.13" y="478.609" width="178.087" height="33.391"/>
<rect x="445.217" y="445.217" width="33.391" height="33.391"/>
<polygon points="478.609,166.957 478.609,345.043 445.217,345.043 445.217,378.435 478.609,378.435 478.609,445.217 512,445.217   512,166.957 "/>
<rect x="445.217" y="100.174" width="33.391" height="66.783"/>
<rect x="411.826" y="66.783" width="33.391" height="33.391"/>
<rect x="345.043" y="33.391" width="66.783" height="33.391"/>
<rect x="66.783" y="345.043" width="100.174" height="33.391"/>
<rect x="166.957" y="311.652" width="66.783" height="33.391"/>
<rect x="233.739" y="345.043" width="33.391" height="33.391"/>
<rect x="267.13" y="378.435" width="178.087" height="33.391"/>
<rect x="66.783" y="66.783" width="33.391" height="33.391"/>
<g>
</g>
<g>
</g>
<g>
</g>
<g>
</g>
<g>
</g>
<g>
</g>
<g>
</g>
<g>
</g>
<g>
</g>
<g>
</g>
<g>
</g>
<g>
</g>
<g>
</g>
<g>
</g>
<g>
</g>
</svg>
