<?xml version="1.0" encoding="iso-8859-1"?>
<!-- Generator: Adobe Illustrator 19.0.0, SVG Export Plug-In . SVG Version: 6.00 Build 0)  -->
<svg xmlns="http://www.w3.org/2000/svg" xmlns:xlink="http://www.w3.org/1999/xlink" version="1.1" id="Layer_1" x="0px" y="0px" viewBox="0 0 512 512" style="enable-background:new 0 0 512 512;" xml:space="preserve">
<path style="fill:#FFDA44;" d="M0,0v278.261h100.174v100.174H0V512h512V0H0z M155.826,155.826h-44.522v-44.522h44.522V155.826z   M345.043,400.696h-66.783v-66.783h66.783V400.696z M400.696,211.478H300.522V111.304h100.174V211.478z"/>
<rect x="278.261" y="400.696" width="66.783" height="33.391"/>
<rect x="100.174" y="278.261" width="33.391" height="100.174"/>
<polygon points="478.609,0 33.391,0 0,0 0,33.391 0,244.87 0,278.261 33.391,278.261 100.174,278.261 100.174,244.87 33.391,244.87   33.391,33.391 478.609,33.391 478.609,478.609 33.391,478.609 33.391,411.826 100.174,411.826 100.174,378.435 33.391,378.435   0,378.435 0,411.826 0,478.609 0,512 33.391,512 478.609,512 512,512 512,478.609 512,33.391 512,0 "/>
<rect x="300.522" y="77.913" width="100.174" height="33.391"/>
<rect x="400.696" y="111.304" width="33.391" height="100.174"/>
<rect x="267.13" y="111.304" width="33.391" height="100.174"/>
<rect x="300.522" y="211.478" width="100.174" height="33.391"/>
<rect x="111.304" y="77.913" width="44.522" height="33.391"/>
<rect x="77.913" y="111.304" width="33.391" height="44.522"/>
<rect x="111.304" y="155.826" width="44.522" height="33.391"/>
<rect x="155.826" y="111.304" width="33.391" height="44.522"/>
<rect x="278.261" y="300.522" width="66.783" height="33.391"/>
<rect x="345.043" y="333.913" width="33.391" height="66.783"/>
<rect x="244.87" y="333.913" width="33.391" height="66.783"/>
<g>
</g>
<g>
</g>
<g>
</g>
<g>
</g>
<g>
</g>
<g>
</g>
<g>
</g>
<g>
</g>
<g>
</g>
<g>
</g>
<g>
</g>
<g>
</g>
<g>
</g>
<g>
</g>
<g>
</g>
</svg>
