<?xml version="1.0" encoding="iso-8859-1"?>
<!-- Generator: Adobe Illustrator 19.0.0, SVG Export Plug-In . SVG Version: 6.00 Build 0)  -->
<svg xmlns="http://www.w3.org/2000/svg" xmlns:xlink="http://www.w3.org/1999/xlink" version="1.1" id="Layer_1" x="0px" y="0px" viewBox="0 0 512 512" style="enable-background:new 0 0 512 512;" xml:space="preserve">
<polygon style="fill:#EE8700;" points="478.609,83.478 478.609,50.087 445.217,50.087 445.217,16.696 289.391,16.696   289.391,50.087 256,50.087 256,83.478 222.609,83.478 222.609,116.87 166.957,116.87 166.957,150.261 133.565,150.261   133.565,183.652 100.174,183.652 100.174,239.304 66.783,239.304 66.783,272.696 33.391,272.696 33.391,306.087 0,306.087   0,428.522 33.391,428.522 33.391,461.913 66.783,461.913 66.783,495.304 445.217,495.304 445.217,461.913 478.609,461.913   478.609,428.522 512,428.522 512,306.087 478.609,306.087 478.609,272.696 445.217,272.696 445.217,239.304 478.609,239.304   478.609,205.913 512,205.913 512,172.522 512,150.261 512,116.87 512,83.478 "/>
<polygon style="fill:#FFA733;" points="512,306.087 478.609,306.087 478.609,272.696 445.217,272.696 445.217,239.304   333.913,239.304 333.913,272.696 300.522,272.696 300.522,239.304 189.217,239.304 189.217,272.696 155.826,272.696   155.826,239.304 66.783,239.304 66.783,272.696 33.391,272.696 33.391,306.087 0,306.087 0,428.522 33.391,428.522 33.391,461.913   66.783,461.913 66.783,495.304 445.217,495.304 445.217,461.913 478.609,461.913 478.609,428.522 512,428.522 "/>
<rect x="478.609" y="83.478" width="33.391" height="122.435"/>
<polygon points="278.261,116.87 256,116.87 256,83.478 222.609,83.478 222.609,116.87 166.957,116.87 166.957,150.261   278.261,150.261 "/>
<rect x="133.565" y="150.261" width="33.391" height="33.391"/>
<rect x="278.261" y="150.261" width="33.391" height="33.391"/>
<rect x="256" y="50.087" width="33.391" height="33.391"/>
<rect x="289.391" y="16.696" width="155.826" height="33.391"/>
<rect x="445.217" y="205.913" width="33.391" height="33.391"/>
<rect x="333.913" y="239.304" width="111.304" height="33.391"/>
<rect x="445.217" y="50.087" width="33.391" height="33.391"/>
<rect x="33.391" y="272.696" width="33.391" height="33.391"/>
<rect y="306.087" width="33.391" height="122.435"/>
<rect x="300.522" y="272.696" width="33.391" height="33.391"/>
<rect x="267.13" y="306.087" width="33.391" height="66.783"/>
<rect x="33.391" y="428.522" width="33.391" height="33.391"/>
<rect x="155.826" y="272.696" width="33.391" height="33.391"/>
<rect x="122.435" y="306.087" width="33.391" height="66.783"/>
<rect x="189.217" y="239.304" width="111.304" height="33.391"/>
<polygon points="155.826,239.304 133.565,239.304 133.565,183.652 100.174,183.652 100.174,239.304 66.783,239.304 66.783,272.696   155.826,272.696 "/>
<rect x="445.217" y="428.522" width="33.391" height="33.391"/>
<rect x="445.217" y="272.696" width="33.391" height="33.391"/>
<rect x="478.609" y="306.087" width="33.391" height="122.435"/>
<rect x="66.783" y="461.913" width="378.435" height="33.391"/>
<g>
	<rect x="289.391" y="50.087" style="fill:#FFFFFF;" width="100.174" height="33.391"/>
	<rect x="166.957" y="150.261" style="fill:#FFFFFF;" width="77.913" height="33.391"/>
	<rect x="33.391" y="306.087" style="fill:#FFFFFF;" width="33.391" height="33.391"/>
	<rect x="66.783" y="272.696" style="fill:#FFFFFF;" width="33.391" height="33.391"/>
	<rect x="189.217" y="272.696" style="fill:#FFFFFF;" width="33.391" height="33.391"/>
	<rect x="155.826" y="306.087" style="fill:#FFFFFF;" width="33.391" height="33.391"/>
	<rect x="333.913" y="272.696" style="fill:#FFFFFF;" width="33.391" height="33.391"/>
	<rect x="300.522" y="306.087" style="fill:#FFFFFF;" width="33.391" height="33.391"/>
</g>
<g>
</g>
<g>
</g>
<g>
</g>
<g>
</g>
<g>
</g>
<g>
</g>
<g>
</g>
<g>
</g>
<g>
</g>
<g>
</g>
<g>
</g>
<g>
</g>
<g>
</g>
<g>
</g>
<g>
</g>
</svg>
