<?xml version="1.0" encoding="iso-8859-1"?>
<!-- Generator: Adobe Illustrator 19.0.0, SVG Export Plug-In . SVG Version: 6.00 Build 0)  -->
<svg xmlns="http://www.w3.org/2000/svg" xmlns:xlink="http://www.w3.org/1999/xlink" version="1.1" id="Layer_1" x="0px" y="0px" viewBox="0 0 512 512" style="enable-background:new 0 0 512 512;" xml:space="preserve">
<polygon style="fill:#E1E3FA;" points="367.304,166.957 367.304,133.565 333.913,133.565 333.913,100.174 378.435,100.174   378.435,0 133.565,0 133.565,100.174 178.087,100.174 178.087,133.565 144.696,133.565 144.696,166.957 111.304,166.957   111.304,512 400.696,512 400.696,166.957 "/>
<rect x="111.304" y="200.348" style="fill:#57A4FF;" width="289.391" height="311.652"/>
<rect x="144.696" y="133.565" width="33.391" height="33.391"/>
<rect x="333.913" y="133.565" width="33.391" height="33.391"/>
<polygon points="211.478,66.783 166.957,66.783 166.957,33.391 345.043,33.391 345.043,66.783 300.522,66.783 300.522,133.565   333.913,133.565 333.913,100.174 378.435,100.174 378.435,0 133.565,0 133.565,100.174 178.087,100.174 178.087,133.565   211.478,133.565 "/>
<polygon points="367.304,166.957 367.304,478.609 144.696,478.609 144.696,166.957 111.304,166.957 111.304,512 400.696,512   400.696,166.957 "/>
<g>
	<rect x="178.087" y="278.261" style="fill:#FFFFFF;" width="33.391" height="33.391"/>
	<rect x="178.087" y="345.043" style="fill:#FFFFFF;" width="33.391" height="100.174"/>
</g>
<g>
</g>
<g>
</g>
<g>
</g>
<g>
</g>
<g>
</g>
<g>
</g>
<g>
</g>
<g>
</g>
<g>
</g>
<g>
</g>
<g>
</g>
<g>
</g>
<g>
</g>
<g>
</g>
<g>
</g>
</svg>
