<?xml version="1.0" encoding="iso-8859-1"?>
<!-- Generator: Adobe Illustrator 19.0.0, SVG Export Plug-In . SVG Version: 6.00 Build 0)  -->
<svg xmlns="http://www.w3.org/2000/svg" xmlns:xlink="http://www.w3.org/1999/xlink" version="1.1" id="Layer_1" x="0px" y="0px" viewBox="0 0 512 512" style="enable-background:new 0 0 512 512;" xml:space="preserve">
<polygon style="fill:#FFFFFF;" points="445.217,166.957 445.217,133.565 411.826,133.565 411.826,100.174 378.435,100.174   378.435,0 133.565,0 133.565,100.174 100.174,100.174 100.174,133.565 66.783,133.565 66.783,166.957 33.391,166.957 33.391,512   478.609,512 478.609,166.957 "/>
<polygon style="fill:#E1E3FA;" points="445.217,166.957 445.217,133.565 411.826,133.565 411.826,100.174 378.435,100.174   378.435,66.783 345.043,66.783 345.043,100.174 311.652,100.174 311.652,133.565 278.261,133.565 278.261,166.957 244.87,166.957   244.87,200.348 244.87,512 478.609,512 478.609,200.348 478.609,166.957 "/>
<rect x="100.174" y="100.174" width="33.391" height="33.391"/>
<rect x="378.435" y="100.174" width="33.391" height="33.391"/>
<path d="M311.652,100.174v33.391h33.391v-33.391h33.391V0h-244.87v100.174H311.652z M166.957,33.391h178.087v33.391H166.957V33.391z  "/>
<path d="M445.217,166.957v-33.391h-33.391v33.391H311.652v-33.391h-33.391v33.391H100.174v-33.391H66.783v33.391H33.391V512h445.217  V166.957H445.217z M244.87,478.609H66.783V200.348H244.87V478.609z M445.217,478.609H278.261V200.348h166.957V478.609z"/>
<g>
</g>
<g>
</g>
<g>
</g>
<g>
</g>
<g>
</g>
<g>
</g>
<g>
</g>
<g>
</g>
<g>
</g>
<g>
</g>
<g>
</g>
<g>
</g>
<g>
</g>
<g>
</g>
<g>
</g>
</svg>
