<?xml version="1.0" encoding="iso-8859-1"?>
<!-- Generator: Adobe Illustrator 19.0.0, SVG Export Plug-In . SVG Version: 6.00 Build 0)  -->
<svg xmlns="http://www.w3.org/2000/svg" xmlns:xlink="http://www.w3.org/1999/xlink" version="1.1" id="Layer_1" x="0px" y="0px" viewBox="0 0 512 512" style="enable-background:new 0 0 512 512;" xml:space="preserve">
<g>
	<polygon style="fill:#C4C8F5;" points="411.826,272.696 478.609,272.696 478.609,239.304 411.826,239.304 411.826,205.913    0,205.913 0,406.261 33.391,406.261 33.391,439.652 66.783,439.652 66.783,473.043 100.174,473.043 100.174,506.435    311.652,506.435 311.652,473.043 345.043,473.043 345.043,439.652 378.435,439.652 378.435,406.261 411.826,406.261    478.609,406.261 478.609,372.87 411.826,372.87  "/>
	<rect x="478.609" y="272.696" style="fill:#C4C8F5;" width="33.391" height="100.174"/>
</g>
<polygon points="411.826,272.696 478.609,272.696 478.609,239.304 411.826,239.304 411.826,205.913 378.435,205.913 33.391,205.913   0,205.913 0,239.304 0,406.261 33.391,406.261 33.391,239.304 378.435,239.304 378.435,272.696 378.435,372.87 378.435,406.261   411.826,406.261 478.609,406.261 478.609,372.87 411.826,372.87 "/>
<rect x="478.609" y="272.696" width="33.391" height="100.174"/>
<rect x="345.043" y="406.261" width="33.391" height="33.391"/>
<rect x="311.652" y="439.652" width="33.391" height="33.391"/>
<rect x="33.391" y="406.261" width="33.391" height="33.391"/>
<rect x="66.783" y="439.652" width="33.391" height="33.391"/>
<rect x="100.174" y="473.043" width="211.478" height="33.391"/>
<rect x="300.522" y="72.348" width="33.391" height="33.391"/>
<rect x="300.522" y="139.13" width="33.391" height="33.391"/>
<rect x="267.13" y="105.739" width="33.391" height="33.391"/>
<rect x="166.957" y="38.957" width="33.391" height="33.391"/>
<rect x="200.348" y="72.348" width="33.391" height="33.391"/>
<rect x="200.348" y="5.565" width="33.391" height="33.391"/>
<rect x="200.348" y="139.13" width="33.391" height="33.391"/>
<rect x="166.957" y="105.739" width="33.391" height="33.391"/>
<rect x="100.174" y="72.348" width="33.391" height="33.391"/>
<rect x="100.174" y="139.13" width="33.391" height="33.391"/>
<rect x="66.783" y="105.739" width="33.391" height="33.391"/>
<g>
	<rect x="66.783" y="372.87" style="fill:#FFFFFF;" width="33.391" height="33.391"/>
	<rect x="66.783" y="272.696" style="fill:#FFFFFF;" width="33.391" height="66.783"/>
</g>
<g>
</g>
<g>
</g>
<g>
</g>
<g>
</g>
<g>
</g>
<g>
</g>
<g>
</g>
<g>
</g>
<g>
</g>
<g>
</g>
<g>
</g>
<g>
</g>
<g>
</g>
<g>
</g>
<g>
</g>
</svg>
