<?xml version="1.0" encoding="iso-8859-1"?>
<!-- Generator: Adobe Illustrator 19.0.0, SVG Export Plug-In . SVG Version: 6.00 Build 0)  -->
<svg xmlns="http://www.w3.org/2000/svg" xmlns:xlink="http://www.w3.org/1999/xlink" version="1.1" id="Layer_1" x="0px" y="0px" viewBox="0 0 512 512" style="enable-background:new 0 0 512 512;" xml:space="preserve">
<polygon style="fill:#A5001E;" points="395.132,0 116.868,0 116.868,233.739 150.26,233.739 150.26,267.13 183.651,267.13   183.651,300.522 328.347,300.522 328.347,267.13 361.738,267.13 361.738,233.739 395.132,233.739 "/>
<rect x="116.87" style="fill:#D1E7F8;" width="278.261" height="166.957"/>
<g>
	<rect x="183.652" y="66.783" style="fill:#FFFFFF;" width="33.391" height="33.391"/>
	<rect x="183.652" y="133.565" style="fill:#FFFFFF;" width="33.391" height="66.783"/>
</g>
<rect x="150.261" y="233.739" width="33.391" height="33.391"/>
<polygon points="239.303,267.13 183.651,267.13 183.651,300.522 239.303,300.522 239.303,478.609 172.521,478.609 172.521,512   239.303,512 272.695,512 339.477,512 339.477,478.609 272.695,478.609 272.695,300.522 328.347,300.522 328.347,267.13   272.695,267.13 "/>
<polygon points="361.738,0 150.26,0 116.868,0 116.868,33.391 116.868,233.739 150.26,233.739 150.26,33.391 361.738,33.391   361.738,233.739 395.132,233.739 395.132,33.391 395.132,0 "/>
<rect x="328.348" y="233.739" width="33.391" height="33.391"/>
<g>
</g>
<g>
</g>
<g>
</g>
<g>
</g>
<g>
</g>
<g>
</g>
<g>
</g>
<g>
</g>
<g>
</g>
<g>
</g>
<g>
</g>
<g>
</g>
<g>
</g>
<g>
</g>
<g>
</g>
</svg>
