<?xml version="1.0" encoding="iso-8859-1"?>
<!-- Generator: Adobe Illustrator 19.0.0, SVG Export Plug-In . SVG Version: 6.00 Build 0)  -->
<svg xmlns="http://www.w3.org/2000/svg" xmlns:xlink="http://www.w3.org/1999/xlink" version="1.1" id="Layer_1" x="0px" y="0px" viewBox="0 0 512 512" style="enable-background:new 0 0 512 512;" xml:space="preserve">
<polygon style="fill:#FF9811;" points="434.087,100.174 256,100.174 256,66.783 222.609,66.783 222.609,33.391 111.304,33.391   111.304,66.783 77.913,66.783 77.913,178.087 111.304,178.087 111.304,211.478 155.826,211.478 155.826,478.609 189.217,478.609   189.217,512 400.696,512 400.696,478.609 434.087,478.609 "/>
<rect x="311.652" y="100.174" style="fill:#AA6100;" width="33.391" height="322.783"/>
<rect x="155.826" y="100.174" style="fill:#D1E7F8;" width="278.261" height="111.304"/>
<g>
	<rect x="222.609" y="311.652" style="fill:#FFFFFF;" width="33.391" height="33.391"/>
	<rect x="222.609" y="378.435" style="fill:#FFFFFF;" width="33.391" height="66.783"/>
</g>
<polygon points="400.696,100.174 367.304,100.174 367.304,0 333.913,0 333.913,100.174 322.783,100.174 256,100.174 256,66.783   222.609,66.783 222.609,100.174 189.217,100.174 155.826,100.174 155.826,133.565 155.826,178.087 111.304,178.087 111.304,211.478   155.826,211.478 155.826,478.609 189.217,478.609 189.217,211.478 189.217,178.087 189.217,133.565 222.609,133.565 256,133.565   322.783,133.565 322.783,211.478 356.174,211.478 356.174,133.565 367.304,133.565 400.696,133.565 400.696,478.609   434.087,478.609 434.087,133.565 434.087,100.174 "/>
<rect x="189.217" y="478.609" width="211.478" height="33.391"/>
<rect x="111.304" y="33.391" width="111.304" height="33.391"/>
<rect x="77.913" y="66.783" width="33.391" height="111.304"/>
<g>
</g>
<g>
</g>
<g>
</g>
<g>
</g>
<g>
</g>
<g>
</g>
<g>
</g>
<g>
</g>
<g>
</g>
<g>
</g>
<g>
</g>
<g>
</g>
<g>
</g>
<g>
</g>
<g>
</g>
</svg>
