<?xml version="1.0" encoding="iso-8859-1"?>
<!-- Generator: Adobe Illustrator 19.0.0, SVG Export Plug-In . SVG Version: 6.00 Build 0)  -->
<svg xmlns="http://www.w3.org/2000/svg" xmlns:xlink="http://www.w3.org/1999/xlink" version="1.1" id="Layer_1" x="0px" y="0px" viewBox="0 0 512 512" style="enable-background:new 0 0 512 512;" xml:space="preserve">
<polygon style="fill:#D1E7F8;" points="411.826,0 100.174,0 100.174,478.609 133.565,478.609 133.565,512 378.435,512   378.435,478.609 411.826,478.609 "/>
<polygon style="fill:#57A4FF;" points="411.826,111.304 100.174,111.304 100.174,478.609 133.565,478.609 133.565,512 378.435,512   378.435,478.609 411.826,478.609 "/>
<polygon points="378.435,0 133.565,0 100.174,0 100.174,33.391 100.174,478.609 133.565,478.609 133.565,33.391 378.435,33.391   378.435,478.609 411.826,478.609 411.826,33.391 411.826,0 "/>
<rect x="133.565" y="478.609" width="244.87" height="33.391"/>
<g>
	<rect x="166.957" y="278.261" style="fill:#FFFFFF;" width="33.391" height="33.391"/>
	<rect x="166.957" y="345.043" style="fill:#FFFFFF;" width="33.391" height="100.174"/>
</g>
<g>
</g>
<g>
</g>
<g>
</g>
<g>
</g>
<g>
</g>
<g>
</g>
<g>
</g>
<g>
</g>
<g>
</g>
<g>
</g>
<g>
</g>
<g>
</g>
<g>
</g>
<g>
</g>
<g>
</g>
</svg>
