<?xml version="1.0"?>
<svg xmlns="http://www.w3.org/2000/svg" width="512" height="512" viewBox="0 0 128 128"><g><path d="M96.976,53.58c9.682-19.688,16.706-41.411,8.354-47.4s-26.669,7.651-42.2,23.16c-2.062-2.87-6.232-5.973-14.586-5.363a1.75,1.75,0,0,0-.371,3.422,1.166,1.166,0,0,1,.663.8,8.21,8.21,0,0,1-1.218,6.445c-.516.772-1.03,1.579-1.541,2.4-2.844-1.4-6.424-1.845-10.694-1.332a1.75,1.75,0,0,0-.207,3.437,3.237,3.237,0,0,1,2.089,1.938,4.056,4.056,0,0,1-.342,3.724C24.474,64.985,16.074,93.462,24.34,107.636l-5.032,7.024a1.751,1.751,0,0,0,.4,2.442l8.119,5.82a1.746,1.746,0,0,0,1.02.328,1.835,1.835,0,0,0,.285-.023,1.752,1.752,0,0,0,1.137-.708l5.033-7.028a21.088,21.088,0,0,0,4.089.388c15.413,0,36.7-14.76,51.331-32.478a4.062,4.062,0,0,1,3.434-1.543,3.254,3.254,0,0,1,2.515,1.36,1.75,1.75,0,0,0,3.187-1.3c-.886-4.21-2.465-7.46-4.706-9.705.609-.745,1.2-1.487,1.765-2.214a8.308,8.308,0,0,1,5.657-3.237h.068c.725.016.915.284.977.372a1.75,1.75,0,0,0,3.121-1.452C104.632,57.557,100.354,54.606,96.976,53.58ZM63.933,33.45a1.77,1.77,0,0,0,.148-.152c.555-.567,1.11-1.122,1.664-1.674l2.982,2.137a1.751,1.751,0,0,0,2.039-2.846l-2.482-1.778q2.349-2.258,4.648-4.312l1.452,1.04a1.75,1.75,0,0,0,2.039-2.845l-.79-.566C88.279,11.628,99.072,6,103.289,9.021s2.357,15.058-3.822,30.509l-.786-.563a1.751,1.751,0,1,0-2.039,2.846l1.449,1.038q-1.209,2.837-2.588,5.788l-2.48-1.777a1.751,1.751,0,0,0-2.039,2.846l2.982,2.136c-.341.7-.685,1.392-1.039,2.093a1.682,1.682,0,0,0-.135.264q-.825,1.626-1.7,3.274a1.766,1.766,0,0,0-.269-.239l-3.459-2.478A1.751,1.751,0,0,0,85.327,57.6l3.459,2.478a1.7,1.7,0,0,0,.751.286q-1.755,3.208-3.666,6.452a1.744,1.744,0,0,0-.7-1.688l-3.459-2.479A1.751,1.751,0,0,0,79.67,65.5l3.459,2.479a1.729,1.729,0,0,0,2.068-.033l-.506.844a15.855,15.855,0,0,0-2.759.6c-1,.31-2.735.891-5.008,1.787l-.874-.626a1.746,1.746,0,0,0-2.631,2.092c-2.206.973-4.7,2.169-7.408,3.623a1.747,1.747,0,0,0-.729-1.482L61.823,72.3a1.75,1.75,0,1,0-2.039,2.845l3.459,2.479c.053.037.113.053.168.084-1.857,1.065-3.786,2.245-5.762,3.549L56.17,80.2a1.748,1.748,0,1,0-2.04,2.84l.449.322a103.815,103.815,0,0,0-11.033,9.032,104.054,104.054,0,0,0,5-13.343l.461.331a1.75,1.75,0,0,0,2.041-2.844l-1.5-1.074c.6-2.294,1.09-4.493,1.5-6.595a1.585,1.585,0,0,0,.156.138l3.459,2.478A1.75,1.75,0,0,0,56.71,68.64l-3.459-2.479a1.751,1.751,0,0,0-1.665-.2c.51-3.034.852-5.81,1.065-8.209.039,0,.078.018.117.018A1.75,1.75,0,0,0,53.787,54.6l-.873-.625c.122-2.488.111-4.325.085-5.316a15.916,15.916,0,0,0-.319-2.794l.636-.751a1.748,1.748,0,0,0,.637,1.963l3.459,2.479a1.751,1.751,0,0,0,2.039-2.846l-3.459-2.478a1.742,1.742,0,0,0-1.821-.124q2.447-2.85,4.918-5.535a1.73,1.73,0,0,0,.521.609l3.459,2.478a1.75,1.75,0,1,0,2.039-2.845l-3.459-2.479a1.764,1.764,0,0,0-.312-.178C62.2,35.238,63.069,34.333,63.933,33.45Zm-13.4,3.132a11.832,11.832,0,0,0,1.739-9.121c3.933.32,6.767,1.824,8.348,4.424C57.307,35.3,54.16,38.753,51.31,42.069a11.849,11.849,0,0,0-2.351-3.032C49.479,38.2,50,37.373,50.532,36.582ZM39.915,46.624a7.619,7.619,0,0,0,.575-6.891c-.1-.229-.2-.451-.319-.665a10.589,10.589,0,0,1,6.214,2.34A10.012,10.012,0,0,1,49.5,48.745a97.649,97.649,0,0,1-3.616,26.921,1.671,1.671,0,0,0-.049.181,98.079,98.079,0,0,1-12.088,27.23c-.775.983-1.536,2-2.288,3.033.053-12.7,4.623-27.437,7.78-37.6,1.868-6.018,3.219-10.365,3.283-12.843a1.749,1.749,0,0,0-1.7-1.795h-.047a1.75,1.75,0,0,0-1.748,1.7c-.052,1.994-1.477,6.583-3.128,11.9-3.281,10.565-8.045,25.95-7.924,39.37-.027-.039-.058-.075-.084-.114C20.531,95.879,25.808,69.489,39.915,46.624ZM28.446,119.058l-5.274-3.782,3.342-4.664a15.785,15.785,0,0,0,2.355,2.125l.014.011c.019.013.036.029.054.043h0l0,0a15.537,15.537,0,0,0,2.845,1.6ZM94.4,78.367a7.621,7.621,0,0,0-6.357,2.781c-15.823,19.164-39.553,34.605-53.18,30.658,12.754-4.2,25.8-13.663,34.757-20.172,4.5-3.272,8.387-6.1,10.258-6.787a1.75,1.75,0,0,0-1.213-3.284c-2.324.859-6.007,3.535-11.1,7.239-8.688,6.315-21.32,15.484-33.433,19.564,14.322-19.845,33.375-29.605,43.234-33.6.043-.018.088-.031.129-.053,2.514-1.014,4.425-1.655,5.478-1.982a10.011,10.011,0,0,1,7.957.594,10.607,10.607,0,0,1,4.215,5.134A7.33,7.33,0,0,0,94.4,78.367Zm-.249-10.516c-.576.747-1.188,1.507-1.813,2.269a11.861,11.861,0,0,0-3.627-1.251c2.226-3.77,4.486-7.853,6.657-12.095,2.968.659,5.3,2.862,6.872,6.494A11.851,11.851,0,0,0,94.154,67.851Z"/><path d="M85.153,21.633l3.46,2.478a1.75,1.75,0,1,0,2.039-2.845l-3.46-2.479a1.751,1.751,0,0,0-2.039,2.846Z"/><path d="M93.727,27.775l3.459,2.479a1.751,1.751,0,0,0,2.039-2.846L95.766,24.93a1.75,1.75,0,1,0-2.039,2.845Z"/><path d="M79.5,29.528l3.459,2.479A1.751,1.751,0,0,0,85,29.161l-3.459-2.478A1.75,1.75,0,0,0,79.5,29.528Z"/><path d="M93.567,35.3l-3.459-2.479a1.751,1.751,0,0,0-2.039,2.846l3.459,2.478A1.75,1.75,0,1,0,93.567,35.3Z"/><path d="M95.1,16.809l3.459,2.478a1.751,1.751,0,0,0,2.039-2.846l-3.459-2.478A1.751,1.751,0,1,0,95.1,16.809Z"/><path d="M73.841,37.425,77.3,39.9a1.75,1.75,0,1,0,2.037-2.845l-3.459-2.478a1.75,1.75,0,0,0-2.037,2.846Z"/><path d="M87.91,43.2l-3.459-2.478a1.75,1.75,0,0,0-2.039,2.845l3.459,2.479A1.751,1.751,0,0,0,87.91,43.2Z"/><path d="M68.184,45.32,71.643,47.8a1.75,1.75,0,0,0,2.037-2.846l-3.459-2.477a1.75,1.75,0,1,0-2.037,2.845Z"/><path d="M82.253,51.1l-3.459-2.479a1.751,1.751,0,0,0-2.039,2.846l3.459,2.478A1.75,1.75,0,0,0,82.253,51.1Z"/><path d="M62.526,53.216l3.459,2.477a1.75,1.75,0,1,0,2.037-2.845L64.563,50.37a1.75,1.75,0,0,0-2.037,2.846Z"/><path d="M76.6,58.99l-3.459-2.478A1.75,1.75,0,1,0,71.1,59.357l3.459,2.479A1.751,1.751,0,0,0,76.6,58.99Z"/><path d="M62.366,60.744l-3.459-2.478a1.75,1.75,0,0,0-2.039,2.845l3.459,2.479a1.751,1.751,0,1,0,2.039-2.846Z"/><path d="M70.939,66.886,67.48,64.407a1.751,1.751,0,0,0-2.039,2.846L68.9,69.731a1.75,1.75,0,1,0,2.039-2.845Z"/></g></svg>
