<svg height="512" viewBox="0 0 128 128" width="512" xmlns="http://www.w3.org/2000/svg"><g><path d="m123.25 48.2a30.017 30.017 0 0 0 -8.878-21.355c-17.956-16.706-50.778-20.327-78.829 5.133l-23.582 23.581a24.505 24.505 0 0 0 -7.211 17.409v16.8a24.625 24.625 0 0 0 24.6 24.63c.813 0 1.632-.04 2.452-.121a24.552 24.552 0 0 0 18.075-10.848 21.521 21.521 0 0 1 17.944-9.6c.4 0 .8.009 1.183.027l22.44 1.244a30.159 30.159 0 0 0 31.806-30.11zm-108.812 9.832 23.519-23.521c13.53-12.28 28.21-17.411 41.564-17.411a47.515 47.515 0 0 1 32.42 12.266 26.652 26.652 0 0 1 -20.3 45.456l-22.461-1.246c-.457-.02-.9-.031-1.36-.031a25.015 25.015 0 0 0 -20.856 11.155 21.134 21.134 0 1 1 -32.526-26.668zm97.505 25.8a26.694 26.694 0 0 1 -20.306 7.768l-22.453-1.238c-.459-.021-.906-.032-1.364-.032a25.015 25.015 0 0 0 -20.856 11.159 21.13 21.13 0 0 1 -38.714-11.719v-4.132a24.608 24.608 0 0 0 21.1 11.977c.813 0 1.632-.04 2.452-.121a24.552 24.552 0 0 0 18.074-10.848 21.521 21.521 0 0 1 17.944-9.6q.6 0 1.183.026l22.441 1.241a30.144 30.144 0 0 0 28.306-16.02v2.7a26.474 26.474 0 0 1 -7.807 18.84z"/><path d="m84.719 85.211-7.668-.423a1.75 1.75 0 1 0 -.193 3.494l7.668.423h.1a1.75 1.75 0 0 0 .095-3.5z"/><path d="m16.206 86.16a18.634 18.634 0 0 0 28.678-2.843 27.51 27.51 0 0 1 22.936-12.272c.5 0 .98.011 1.514.035l22.437 1.24a24.264 24.264 0 0 0 18.4-7.037 24.139 24.139 0 0 0 .027-34.128 44.782 44.782 0 0 0 -30.611-11.555c-9.767 0-24.607 2.891-39.906 16.73l-23.473 23.47a18.624 18.624 0 0 0 -4.149 20.031 18.342 18.342 0 0 0 4.147 6.329zm2.479-23.889 23.407-23.411c14.408-13.03 28.344-15.76 37.495-15.76a41.265 41.265 0 0 1 28.179 10.576 20.646 20.646 0 0 1 -.072 29.14 20.8 20.8 0 0 1 -15.73 6.015l-22.453-1.246c-.61-.027-1.144-.04-1.691-.04a31 31 0 0 0 -25.848 13.831 15.135 15.135 0 0 1 -23.291 2.31 15.216 15.216 0 0 1 -4.431-10.711 15.057 15.057 0 0 1 4.435-10.704z"/><path d="m91.469 49.95a7.75 7.75 0 1 0 -7.75-7.75 7.759 7.759 0 0 0 7.75 7.75zm0-12a4.25 4.25 0 1 1 -4.25 4.25 4.255 4.255 0 0 1 4.25-4.25z"/></g></svg>