<svg height="512" viewBox="0 0 128 128" width="512" xmlns="http://www.w3.org/2000/svg"><g><path d="m110.744 17.255c-.9-.948-12.051-12.444-26.428-12.71-7.764-.154-15 3.044-21.445 9.473-12.259 12.226-12.922 23.931-13.507 34.258-.457 8.081-.852 15.059-6.674 21.08a1.753 1.753 0 0 0 -.49 1.164 8.7 8.7 0 0 0 .845 3.84l-13.572 13.571c-2.929 2.928-6.071 2.734-10.821 2.437-1.38-.086-2.806-.174-4.384-.2a9.358 9.358 0 0 0 -9.017 5.6 9.532 9.532 0 0 0 2.365 10.552 12.435 12.435 0 0 0 10.2 3.868 12.435 12.435 0 0 0 3.868 10.2 10.007 10.007 0 0 0 7.053 3.079 8.958 8.958 0 0 0 3.5-.713 9.35 9.35 0 0 0 5.6-9.018c-.023-1.577-.112-3-.2-4.383-.3-4.753-.491-7.893 2.436-10.822l13.566-13.575a8.76 8.76 0 0 0 3.644.848h.2a1.752 1.752 0 0 0 1.165-.491c6.02-5.822 13-6.217 21.079-6.675 10.327-.584 22.032-1.247 34.257-13.506 6.43-6.446 9.617-13.662 9.473-21.445-.268-14.381-11.766-25.536-12.713-26.432zm-73.15 78.8c-4.045 4.044-3.772 8.432-3.455 13.513.083 1.339.169 2.724.191 4.219a5.913 5.913 0 0 1 -3.46 5.741 6.029 6.029 0 0 1 -6.716-1.616 8.879 8.879 0 0 1 -2.451-9.327 1.75 1.75 0 0 0 -2.286-2.286 8.89 8.89 0 0 1 -9.326-2.451 6.028 6.028 0 0 1 -1.616-6.717 5.852 5.852 0 0 1 5.74-3.459c1.5.022 2.881.108 4.22.191 5.084.317 9.468.589 13.512-3.455l13.269-13.271a8.643 8.643 0 0 0 3.907 1.74 8.65 8.65 0 0 0 1.738 3.909zm73.909-33.4c-11.28 11.312-21.8 11.908-31.977 12.484-8.185.463-15.93.9-22.75 7.122-1.3-.164-4.074-.992-4.341-5.065a1.75 1.75 0 0 0 -1.635-1.63c-4.081-.268-4.906-3.057-5.067-4.341 6.221-6.82 6.66-14.565 7.122-22.751.578-10.175 1.173-20.7 12.484-31.977 5.743-5.728 12.075-8.583 18.889-8.453 13.18.232 23.889 11.529 24 11.644.027.029.056.059.086.086.114.106 11.4 10.766 11.642 23.974.124 6.798-2.72 13.161-8.456 18.909z"/><path d="m69.1 23.669c-8.362 8.826-8.458 20.989-8.458 21.5a1.749 1.749 0 0 0 1.748 1.749 1.75 1.75 0 0 0 1.75-1.746c0-.112.118-11.307 7.5-19.1a1.75 1.75 0 0 0 -2.54-2.403z"/><path d="m84.988 15.527a10.688 10.688 0 0 0 -8.979 2.04 1.75 1.75 0 0 0 2.291 2.643 7.125 7.125 0 0 1 5.922-1.267 1.75 1.75 0 0 0 .763-3.416z"/></g></svg>